<svg width="18" height="18" viewBox="0 0 18 18" fill="none" xmlns="http://www.w3.org/2000/svg">
<mask id="path-1-inside-1_413_62" fill="white">
<path d="M9.00474 9.31762C8.33879 9.31834 7.68759 9.12152 7.13352 8.75206C6.57945 8.38261 6.14741 7.85711 5.89206 7.24206C5.63671 6.62701 5.56953 5.95004 5.69901 5.29679C5.82848 4.64355 6.14881 4.04338 6.61945 3.57223C7.09009 3.10107 7.68991 2.7801 8.34301 2.64991C8.99611 2.51973 9.67315 2.58618 10.2885 2.84086C10.9038 3.09554 11.4298 3.52701 11.7998 4.08068C12.1699 4.63435 12.3674 5.28534 12.3674 5.95129C12.3664 6.84317 12.012 7.69829 11.3817 8.32929C10.7514 8.96028 9.89662 9.31568 9.00474 9.31762ZM9.00474 3.68395C8.55527 3.68322 8.1157 3.81589 7.74167 4.06516C7.36765 4.31442 7.07601 4.66906 6.90367 5.08418C6.73133 5.4993 6.68605 5.95622 6.77356 6.39709C6.86107 6.83796 7.07744 7.24295 7.39526 7.56077C7.71308 7.8786 8.11807 8.09496 8.55894 8.18247C8.99981 8.26998 9.45673 8.2247 9.87185 8.05236C10.287 7.88002 10.6416 7.58838 10.8909 7.21436C11.1401 6.84034 11.2728 6.40076 11.2721 5.95129C11.2721 5.34995 11.0332 4.77324 10.608 4.34804C10.1828 3.92283 9.60608 3.68395 9.00474 3.68395Z"/>
</mask>
<path d="M9.00474 9.31762C8.33879 9.31834 7.68759 9.12152 7.13352 8.75206C6.57945 8.38261 6.14741 7.85711 5.89206 7.24206C5.63671 6.62701 5.56953 5.95004 5.69901 5.29679C5.82848 4.64355 6.14881 4.04338 6.61945 3.57223C7.09009 3.10107 7.68991 2.7801 8.34301 2.64991C8.99611 2.51973 9.67315 2.58618 10.2885 2.84086C10.9038 3.09554 11.4298 3.52701 11.7998 4.08068C12.1699 4.63435 12.3674 5.28534 12.3674 5.95129C12.3664 6.84317 12.012 7.69829 11.3817 8.32929C10.7514 8.96028 9.89662 9.31568 9.00474 9.31762ZM9.00474 3.68395C8.55527 3.68322 8.1157 3.81589 7.74167 4.06516C7.36765 4.31442 7.07601 4.66906 6.90367 5.08418C6.73133 5.4993 6.68605 5.95622 6.77356 6.39709C6.86107 6.83796 7.07744 7.24295 7.39526 7.56077C7.71308 7.8786 8.11807 8.09496 8.55894 8.18247C8.99981 8.26998 9.45673 8.2247 9.87185 8.05236C10.287 7.88002 10.6416 7.58838 10.8909 7.21436C11.1401 6.84034 11.2728 6.40076 11.2721 5.95129C11.2721 5.34995 11.0332 4.77324 10.608 4.34804C10.1828 3.92283 9.60608 3.68395 9.00474 3.68395Z" fill="#0D1B2A"/>
<path d="M9.00474 9.31762L9.0183 21.8176L9.03182 21.8176L9.00474 9.31762ZM12.3674 5.95129L24.8674 5.9648V5.95128L12.3674 5.95129ZM9.00474 3.68395L8.98466 16.1839L8.9947 16.1839H9.00474V3.68395ZM11.2721 5.95129H-1.22792V5.96133L-1.22791 5.97137L11.2721 5.95129ZM8.99118 -3.18238C10.7981 -3.18434 12.565 -2.65032 14.0683 -1.64789L0.198749 19.152C2.81022 20.8934 5.8795 21.821 9.0183 21.8176L8.99118 -3.18238ZM14.0683 -1.64789C15.5716 -0.645452 16.7438 0.780351 17.4367 2.44913L-5.65254 12.035C-4.44902 14.9339 -2.41272 17.4107 0.198749 19.152L14.0683 -1.64789ZM17.4367 2.44913C18.1295 4.11791 18.3118 5.95469 17.9605 7.7271L-6.56246 2.86648C-7.17272 5.94538 -6.85606 9.1361 -5.65254 12.035L17.4367 2.44913ZM17.9605 7.7271C17.6092 9.49952 16.7401 11.1279 15.4631 12.4063L-2.22419 -5.2618C-4.44244 -3.04114 -5.9522 -0.21242 -6.56246 2.86648L17.9605 7.7271ZM15.4631 12.4063C14.1861 13.6846 12.5587 14.5555 10.7866 14.9087L5.89938 -9.60891C2.82114 -8.9953 -0.00593281 -7.48247 -2.22419 -5.2618L15.4631 12.4063ZM10.7866 14.9087C9.0146 15.262 7.17761 15.0817 5.50807 14.3906L15.0689 -8.70893C12.1687 -9.90931 8.97762 -10.2225 5.89938 -9.60891L10.7866 14.9087ZM5.50807 14.3906C3.83852 13.6996 2.41145 12.5289 1.4074 11.0267L22.1923 -2.86536C20.4481 -5.47492 17.9691 -7.50855 15.0689 -8.70893L5.50807 14.3906ZM1.4074 11.0267C0.40334 9.52447 -0.132588 7.75818 -0.132589 5.9513L24.8674 5.95128C24.8674 2.81249 23.9364 -0.255778 22.1923 -2.86536L1.4074 11.0267ZM-0.132582 5.93777C-0.12997 3.52149 0.830376 1.20476 2.53803 -0.504743L20.2253 17.1633C23.1936 14.1918 24.8629 10.1648 24.8674 5.9648L-0.132582 5.93777ZM2.53803 -0.504743C4.24567 -2.21425 6.56136 -3.17712 8.97766 -3.18235L9.03182 21.8176C13.2319 21.8085 17.257 20.1348 20.2253 17.1633L2.53803 -0.504743ZM9.02482 -8.81604C6.10138 -8.82073 3.24228 -7.95783 0.809565 -6.33657L14.6738 14.4669C12.9891 15.5896 11.0092 16.1872 8.98466 16.1839L9.02482 -8.81604ZM0.809565 -6.33657C-1.62315 -4.71531 -3.52006 -2.40864 -4.64098 0.29137L18.4483 9.87699C17.6721 11.7468 16.3585 13.3441 14.6738 14.4669L0.809565 -6.33657ZM-4.64098 0.29137C-5.7619 2.99137 -6.05642 5.96328 -5.48723 8.83079L19.0344 3.96339C19.4285 5.94916 19.2246 8.00722 18.4483 9.87699L-4.64098 0.29137ZM-5.48723 8.83079C-4.91805 11.6983 -3.51076 14.3324 -1.44358 16.3996L16.2341 -1.27805C17.6656 0.153483 18.6402 1.97762 19.0344 3.96339L-5.48723 8.83079ZM-1.44358 16.3996C0.623605 18.4668 3.25772 19.8741 6.12523 20.4433L10.9926 -4.07832C12.9784 -3.68416 14.8026 -2.7096 16.2341 -1.27805L-1.44358 16.3996ZM6.12523 20.4433C8.99273 21.0125 11.9647 20.7179 14.6647 19.597L5.07902 -3.49228C6.94881 -4.26853 9.00688 -4.47249 10.9926 -4.07832L6.12523 20.4433ZM14.6647 19.597C17.3647 18.4761 19.6714 16.5792 21.2926 14.1464L0.489135 0.282265C1.61186 -1.40241 3.20925 -2.71603 5.07902 -3.49228L14.6647 19.597ZM21.2926 14.1464C22.9139 11.7137 23.7768 8.85464 23.7721 5.93121L-1.22791 5.97137C-1.23116 3.94688 -0.633594 1.96694 0.489135 0.282265L21.2926 14.1464ZM23.7721 5.95129C23.7721 2.03475 22.2162 -1.72138 19.4468 -4.49079L1.76915 13.1869C-0.149845 11.2679 -1.22792 8.66515 -1.22792 5.95129H23.7721ZM19.4468 -4.49079C16.6774 -7.26021 12.9213 -8.81605 9.00474 -8.81605V16.1839C6.29086 16.1839 3.68814 15.1059 1.76915 13.1869L19.4468 -4.49079Z" fill="#0D1B2A" mask="url(#path-1-inside-1_413_62)"/>
<mask id="path-3-inside-2_413_62" fill="white">
<path d="M9.00534 18.0001C6.98995 17.9982 5.03338 17.3207 3.44835 16.0759C3.38914 16.029 3.34014 15.9704 3.30435 15.9039C3.26857 15.8373 3.24675 15.7642 3.24023 15.6889C3.24023 15.6305 3.24023 15.5757 3.24023 15.5173C3.24023 14.7597 3.38945 14.0096 3.67935 13.3097C3.96926 12.6098 4.39418 11.9738 4.92986 11.4382C5.46554 10.9025 6.10148 10.4776 6.80138 10.1877C7.50128 9.89775 8.25142 9.74854 9.00899 9.74854C9.76655 9.74854 10.5167 9.89775 11.2166 10.1877C11.9165 10.4776 12.5524 10.9025 13.0881 11.4382C13.6238 11.9738 14.0487 12.6098 14.3386 13.3097C14.6285 14.0096 14.7777 14.7597 14.7777 15.5173C14.7777 15.5757 14.7777 15.6305 14.7777 15.6889C14.7712 15.7642 14.7494 15.8373 14.7136 15.9039C14.6778 15.9704 14.6288 16.029 14.5696 16.0759C12.9826 17.3222 11.0232 17.9998 9.00534 18.0001ZM4.33557 15.3749C5.68979 16.3686 7.32567 16.9044 9.00534 16.9044C10.685 16.9044 12.3209 16.3686 13.6751 15.3749C13.6274 14.1684 13.1145 13.0271 12.244 12.1903C11.3735 11.3535 10.2128 10.8862 9.00534 10.8862C7.79785 10.8862 6.63722 11.3535 5.76669 12.1903C4.89615 13.0271 4.38329 14.1684 4.33557 15.3749Z"/>
</mask>
<path d="M9.00534 18.0001C6.98995 17.9982 5.03338 17.3207 3.44835 16.0759C3.38914 16.029 3.34014 15.9704 3.30435 15.9039C3.26857 15.8373 3.24675 15.7642 3.24023 15.6889C3.24023 15.6305 3.24023 15.5757 3.24023 15.5173C3.24023 14.7597 3.38945 14.0096 3.67935 13.3097C3.96926 12.6098 4.39418 11.9738 4.92986 11.4382C5.46554 10.9025 6.10148 10.4776 6.80138 10.1877C7.50128 9.89775 8.25142 9.74854 9.00899 9.74854C9.76655 9.74854 10.5167 9.89775 11.2166 10.1877C11.9165 10.4776 12.5524 10.9025 13.0881 11.4382C13.6238 11.9738 14.0487 12.6098 14.3386 13.3097C14.6285 14.0096 14.7777 14.7597 14.7777 15.5173C14.7777 15.5757 14.7777 15.6305 14.7777 15.6889C14.7712 15.7642 14.7494 15.8373 14.7136 15.9039C14.6778 15.9704 14.6288 16.029 14.5696 16.0759C12.9826 17.3222 11.0232 17.9998 9.00534 18.0001ZM4.33557 15.3749C5.68979 16.3686 7.32567 16.9044 9.00534 16.9044C10.685 16.9044 12.3209 16.3686 13.6751 15.3749C13.6274 14.1684 13.1145 13.0271 12.244 12.1903C11.3735 11.3535 10.2128 10.8862 9.00534 10.8862C7.79785 10.8862 6.63722 11.3535 5.76669 12.1903C4.89615 13.0271 4.38329 14.1684 4.33557 15.3749Z" fill="#0D1B2A"/>
<path d="M9.00534 18.0001L8.99359 30.5001L9.00694 30.5001L9.00534 18.0001ZM3.44835 16.0759L-4.31761 25.8708L-4.29488 25.8888L-4.27207 25.9067L3.44835 16.0759ZM3.24023 15.6889H-9.25977V16.2288L-9.21321 16.7667L3.24023 15.6889ZM3.24023 15.5173H15.7402V15.5173L3.24023 15.5173ZM14.7777 15.5173L2.27774 15.5173V15.5173H14.7777ZM14.7777 15.6889L27.2312 16.7667L27.2777 16.2288V15.6889H14.7777ZM14.5696 16.0759L22.29 25.9067L22.3129 25.8888L22.3356 25.8708L14.5696 16.0759ZM4.33557 15.3749L-8.15467 14.8809L-8.41731 21.5215L-3.05922 25.453L4.33557 15.3749ZM13.6751 15.3749L21.0699 25.453L26.428 21.5215L26.1653 14.8809L13.6751 15.3749ZM9.00534 10.8862V23.3862V10.8862ZM9.01708 5.50006C9.79745 5.50079 10.555 5.76312 11.1688 6.24509L-4.27207 25.9067C-0.488282 28.8783 4.18246 30.4955 8.99359 30.5L9.01708 5.50006ZM11.2143 6.28102C12.4887 7.29141 13.5433 8.55141 14.3136 9.98384L-7.70487 21.8239C-6.86303 23.3895 -5.71039 24.7665 -4.31761 25.8708L11.2143 6.28102ZM14.3136 9.98384C15.0838 11.4162 15.5534 12.9908 15.6937 14.6111L-9.21321 16.7667C-9.05995 18.5376 -8.54666 20.2585 -7.70487 21.8239L14.3136 9.98384ZM15.7402 15.6889C15.7402 15.6888 15.7402 15.6887 15.7402 15.6886C15.7402 15.6884 15.7402 15.6883 15.7402 15.6882C15.7402 15.6881 15.7402 15.688 15.7402 15.6879C15.7402 15.6878 15.7402 15.6876 15.7402 15.6875C15.7402 15.6874 15.7402 15.6873 15.7402 15.6872C15.7402 15.6871 15.7402 15.687 15.7402 15.6868C15.7402 15.6867 15.7402 15.6866 15.7402 15.6865C15.7402 15.6864 15.7402 15.6863 15.7402 15.6862C15.7402 15.6861 15.7402 15.6859 15.7402 15.6858C15.7402 15.6857 15.7402 15.6856 15.7402 15.6855C15.7402 15.6854 15.7402 15.6853 15.7402 15.6851C15.7402 15.685 15.7402 15.6849 15.7402 15.6848C15.7402 15.6847 15.7402 15.6846 15.7402 15.6845C15.7402 15.6843 15.7402 15.6842 15.7402 15.6841C15.7402 15.684 15.7402 15.6839 15.7402 15.6838C15.7402 15.6837 15.7402 15.6835 15.7402 15.6834C15.7402 15.6833 15.7402 15.6832 15.7402 15.6831C15.7402 15.683 15.7402 15.6829 15.7402 15.6828C15.7402 15.6826 15.7402 15.6825 15.7402 15.6824C15.7402 15.6823 15.7402 15.6822 15.7402 15.6821C15.7402 15.682 15.7402 15.6818 15.7402 15.6817C15.7402 15.6816 15.7402 15.6815 15.7402 15.6814C15.7402 15.6813 15.7402 15.6812 15.7402 15.681C15.7402 15.6809 15.7402 15.6808 15.7402 15.6807C15.7402 15.6806 15.7402 15.6805 15.7402 15.6804C15.7402 15.6803 15.7402 15.6801 15.7402 15.68C15.7402 15.6799 15.7402 15.6798 15.7402 15.6797C15.7402 15.6796 15.7402 15.6795 15.7402 15.6793C15.7402 15.6792 15.7402 15.6791 15.7402 15.679C15.7402 15.6789 15.7402 15.6788 15.7402 15.6787C15.7402 15.6786 15.7402 15.6784 15.7402 15.6783C15.7402 15.6782 15.7402 15.6781 15.7402 15.678C15.7402 15.6779 15.7402 15.6778 15.7402 15.6776C15.7402 15.6775 15.7402 15.6774 15.7402 15.6773C15.7402 15.6772 15.7402 15.6771 15.7402 15.677C15.7402 15.6769 15.7402 15.6767 15.7402 15.6766C15.7402 15.6765 15.7402 15.6764 15.7402 15.6763C15.7402 15.6762 15.7402 15.6761 15.7402 15.676C15.7402 15.6758 15.7402 15.6757 15.7402 15.6756C15.7402 15.6755 15.7402 15.6754 15.7402 15.6753C15.7402 15.6752 15.7402 15.675 15.7402 15.6749C15.7402 15.6748 15.7402 15.6747 15.7402 15.6746C15.7402 15.6745 15.7402 15.6744 15.7402 15.6743C15.7402 15.6741 15.7402 15.674 15.7402 15.6739C15.7402 15.6738 15.7402 15.6737 15.7402 15.6736C15.7402 15.6735 15.7402 15.6734 15.7402 15.6732C15.7402 15.6731 15.7402 15.673 15.7402 15.6729C15.7402 15.6728 15.7402 15.6727 15.7402 15.6726C15.7402 15.6724 15.7402 15.6723 15.7402 15.6722C15.7402 15.6721 15.7402 15.672 15.7402 15.6719C15.7402 15.6718 15.7402 15.6717 15.7402 15.6715C15.7402 15.6714 15.7402 15.6713 15.7402 15.6712C15.7402 15.6711 15.7402 15.671 15.7402 15.6709C15.7402 15.6708 15.7402 15.6706 15.7402 15.6705C15.7402 15.6704 15.7402 15.6703 15.7402 15.6702C15.7402 15.6701 15.7402 15.67 15.7402 15.6699C15.7402 15.6697 15.7402 15.6696 15.7402 15.6695C15.7402 15.6694 15.7402 15.6693 15.7402 15.6692C15.7402 15.6691 15.7402 15.669 15.7402 15.6688C15.7402 15.6687 15.7402 15.6686 15.7402 15.6685C15.7402 15.6684 15.7402 15.6683 15.7402 15.6682C15.7402 15.6681 15.7402 15.6679 15.7402 15.6678C15.7402 15.6677 15.7402 15.6676 15.7402 15.6675C15.7402 15.6674 15.7402 15.6673 15.7402 15.6672C15.7402 15.667 15.7402 15.6669 15.7402 15.6668C15.7402 15.6667 15.7402 15.6666 15.7402 15.6665C15.7402 15.6664 15.7402 15.6663 15.7402 15.6661C15.7402 15.666 15.7402 15.6659 15.7402 15.6658C15.7402 15.6657 15.7402 15.6656 15.7402 15.6655C15.7402 15.6654 15.7402 15.6652 15.7402 15.6651C15.7402 15.665 15.7402 15.6649 15.7402 15.6648C15.7402 15.6647 15.7402 15.6646 15.7402 15.6645C15.7402 15.6643 15.7402 15.6642 15.7402 15.6641C15.7402 15.664 15.7402 15.6639 15.7402 15.6638C15.7402 15.6637 15.7402 15.6636 15.7402 15.6634C15.7402 15.6633 15.7402 15.6632 15.7402 15.6631C15.7402 15.663 15.7402 15.6629 15.7402 15.6628C15.7402 15.6627 15.7402 15.6625 15.7402 15.6624C15.7402 15.6623 15.7402 15.6622 15.7402 15.6621C15.7402 15.662 15.7402 15.6619 15.7402 15.6618C15.7402 15.6616 15.7402 15.6615 15.7402 15.6614C15.7402 15.6613 15.7402 15.6612 15.7402 15.6611C15.7402 15.661 15.7402 15.6609 15.7402 15.6607C15.7402 15.6606 15.7402 15.6605 15.7402 15.6604C15.7402 15.6603 15.7402 15.6602 15.7402 15.6601C15.7402 15.66 15.7402 15.6598 15.7402 15.6597C15.7402 15.6596 15.7402 15.6595 15.7402 15.6594C15.7402 15.6593 15.7402 15.6592 15.7402 15.6591C15.7402 15.659 15.7402 15.6588 15.7402 15.6587C15.7402 15.6586 15.7402 15.6585 15.7402 15.6584C15.7402 15.6583 15.7402 15.6582 15.7402 15.6581C15.7402 15.6579 15.7402 15.6578 15.7402 15.6577C15.7402 15.6576 15.7402 15.6575 15.7402 15.6574C15.7402 15.6573 15.7402 15.6572 15.7402 15.657C15.7402 15.6569 15.7402 15.6568 15.7402 15.6567C15.7402 15.6566 15.7402 15.6565 15.7402 15.6564C15.7402 15.6563 15.7402 15.6562 15.7402 15.656C15.7402 15.6559 15.7402 15.6558 15.7402 15.6557C15.7402 15.6556 15.7402 15.6555 15.7402 15.6554C15.7402 15.6553 15.7402 15.6551 15.7402 15.655C15.7402 15.6549 15.7402 15.6548 15.7402 15.6547C15.7402 15.6546 15.7402 15.6545 15.7402 15.6544C15.7402 15.6543 15.7402 15.6541 15.7402 15.654C15.7402 15.6539 15.7402 15.6538 15.7402 15.6537C15.7402 15.6536 15.7402 15.6535 15.7402 15.6534C15.7402 15.6532 15.7402 15.6531 15.7402 15.653C15.7402 15.6529 15.7402 15.6528 15.7402 15.6527C15.7402 15.6526 15.7402 15.6525 15.7402 15.6524C15.7402 15.6522 15.7402 15.6521 15.7402 15.652C15.7402 15.6519 15.7402 15.6518 15.7402 15.6517C15.7402 15.6516 15.7402 15.6515 15.7402 15.6513C15.7402 15.6512 15.7402 15.6511 15.7402 15.651C15.7402 15.6509 15.7402 15.6508 15.7402 15.6507C15.7402 15.6506 15.7402 15.6505 15.7402 15.6503C15.7402 15.6502 15.7402 15.6501 15.7402 15.65C15.7402 15.6499 15.7402 15.6498 15.7402 15.6497C15.7402 15.6496 15.7402 15.6494 15.7402 15.6493C15.7402 15.6492 15.7402 15.6491 15.7402 15.649C15.7402 15.6489 15.7402 15.6488 15.7402 15.6487C15.7402 15.6486 15.7402 15.6484 15.7402 15.6483C15.7402 15.6482 15.7402 15.6481 15.7402 15.648C15.7402 15.6479 15.7402 15.6478 15.7402 15.6477C15.7402 15.6476 15.7402 15.6474 15.7402 15.6473C15.7402 15.6472 15.7402 15.6471 15.7402 15.647C15.7402 15.6469 15.7402 15.6468 15.7402 15.6467C15.7402 15.6465 15.7402 15.6464 15.7402 15.6463C15.7402 15.6462 15.7402 15.6461 15.7402 15.646C15.7402 15.6459 15.7402 15.6458 15.7402 15.6457C15.7402 15.6455 15.7402 15.6454 15.7402 15.6453C15.7402 15.6452 15.7402 15.6451 15.7402 15.645C15.7402 15.6449 15.7402 15.6448 15.7402 15.6447C15.7402 15.6445 15.7402 15.6444 15.7402 15.6443C15.7402 15.6442 15.7402 15.6441 15.7402 15.644C15.7402 15.6439 15.7402 15.6438 15.7402 15.6437C15.7402 15.6435 15.7402 15.6434 15.7402 15.6433C15.7402 15.6432 15.7402 15.6431 15.7402 15.643C15.7402 15.6429 15.7402 15.6428 15.7402 15.6427C15.7402 15.6425 15.7402 15.6424 15.7402 15.6423C15.7402 15.6422 15.7402 15.6421 15.7402 15.642C15.7402 15.6419 15.7402 15.6418 15.7402 15.6416C15.7402 15.6415 15.7402 15.6414 15.7402 15.6413C15.7402 15.6412 15.7402 15.6411 15.7402 15.641C15.7402 15.6409 15.7402 15.6408 15.7402 15.6406C15.7402 15.6405 15.7402 15.6404 15.7402 15.6403C15.7402 15.6402 15.7402 15.6401 15.7402 15.64C15.7402 15.6399 15.7402 15.6398 15.7402 15.6396C15.7402 15.6395 15.7402 15.6394 15.7402 15.6393C15.7402 15.6392 15.7402 15.6391 15.7402 15.639C15.7402 15.6389 15.7402 15.6388 15.7402 15.6386C15.7402 15.6385 15.7402 15.6384 15.7402 15.6383C15.7402 15.6382 15.7402 15.6381 15.7402 15.638C15.7402 15.6379 15.7402 15.6378 15.7402 15.6376C15.7402 15.6375 15.7402 15.6374 15.7402 15.6373C15.7402 15.6372 15.7402 15.6371 15.7402 15.637C15.7402 15.6369 15.7402 15.6368 15.7402 15.6366C15.7402 15.6365 15.7402 15.6364 15.7402 15.6363C15.7402 15.6362 15.7402 15.6361 15.7402 15.636C15.7402 15.6359 15.7402 15.6358 15.7402 15.6356C15.7402 15.6355 15.7402 15.6354 15.7402 15.6353C15.7402 15.6352 15.7402 15.6351 15.7402 15.635C15.7402 15.6349 15.7402 15.6348 15.7402 15.6346C15.7402 15.6345 15.7402 15.6344 15.7402 15.6343C15.7402 15.6342 15.7402 15.6341 15.7402 15.634C15.7402 15.6339 15.7402 15.6338 15.7402 15.6336C15.7402 15.6335 15.7402 15.6334 15.7402 15.6333C15.7402 15.6332 15.7402 15.6331 15.7402 15.633C15.7402 15.6329 15.7402 15.6328 15.7402 15.6326C15.7402 15.6325 15.7402 15.6324 15.7402 15.6323C15.7402 15.6322 15.7402 15.6321 15.7402 15.632C15.7402 15.6319 15.7402 15.6318 15.7402 15.6317C15.7402 15.6315 15.7402 15.6314 15.7402 15.6313C15.7402 15.6312 15.7402 15.6311 15.7402 15.631C15.7402 15.6309 15.7402 15.6308 15.7402 15.6307C15.7402 15.6305 15.7402 15.6304 15.7402 15.6303C15.7402 15.6302 15.7402 15.6301 15.7402 15.63C15.7402 15.6299 15.7402 15.6298 15.7402 15.6297C15.7402 15.6295 15.7402 15.6294 15.7402 15.6293C15.7402 15.6292 15.7402 15.6291 15.7402 15.629C15.7402 15.6289 15.7402 15.6288 15.7402 15.6287C15.7402 15.6285 15.7402 15.6284 15.7402 15.6283C15.7402 15.6282 15.7402 15.6281 15.7402 15.628C15.7402 15.6279 15.7402 15.6278 15.7402 15.6277C15.7402 15.6275 15.7402 15.6274 15.7402 15.6273C15.7402 15.6272 15.7402 15.6271 15.7402 15.627C15.7402 15.6269 15.7402 15.6268 15.7402 15.6267C15.7402 15.6266 15.7402 15.6264 15.7402 15.6263C15.7402 15.6262 15.7402 15.6261 15.7402 15.626C15.7402 15.6259 15.7402 15.6258 15.7402 15.6257C15.7402 15.6256 15.7402 15.6254 15.7402 15.6253C15.7402 15.6252 15.7402 15.6251 15.7402 15.625C15.7402 15.6249 15.7402 15.6248 15.7402 15.6247C15.7402 15.6246 15.7402 15.6244 15.7402 15.6243C15.7402 15.6242 15.7402 15.6241 15.7402 15.624C15.7402 15.6239 15.7402 15.6238 15.7402 15.6237C15.7402 15.6236 15.7402 15.6234 15.7402 15.6233C15.7402 15.6232 15.7402 15.6231 15.7402 15.623C15.7402 15.6229 15.7402 15.6228 15.7402 15.6227C15.7402 15.6226 15.7402 15.6225 15.7402 15.6223C15.7402 15.6222 15.7402 15.6221 15.7402 15.622C15.7402 15.6219 15.7402 15.6218 15.7402 15.6217C15.7402 15.6216 15.7402 15.6215 15.7402 15.6213C15.7402 15.6212 15.7402 15.6211 15.7402 15.621C15.7402 15.6209 15.7402 15.6208 15.7402 15.6207C15.7402 15.6206 15.7402 15.6205 15.7402 15.6203C15.7402 15.6202 15.7402 15.6201 15.7402 15.62C15.7402 15.6199 15.7402 15.6198 15.7402 15.6197C15.7402 15.6196 15.7402 15.6195 15.7402 15.6194C15.7402 15.6192 15.7402 15.6191 15.7402 15.619C15.7402 15.6189 15.7402 15.6188 15.7402 15.6187C15.7402 15.6186 15.7402 15.6185 15.7402 15.6184C15.7402 15.6182 15.7402 15.6181 15.7402 15.618C15.7402 15.6179 15.7402 15.6178 15.7402 15.6177C15.7402 15.6176 15.7402 15.6175 15.7402 15.6174C15.7402 15.6173 15.7402 15.6171 15.7402 15.617C15.7402 15.6169 15.7402 15.6168 15.7402 15.6167C15.7402 15.6166 15.7402 15.6165 15.7402 15.6164C15.7402 15.6163 15.7402 15.6161 15.7402 15.616C15.7402 15.6159 15.7402 15.6158 15.7402 15.6157C15.7402 15.6156 15.7402 15.6155 15.7402 15.6154C15.7402 15.6153 15.7402 15.6151 15.7402 15.615C15.7402 15.6149 15.7402 15.6148 15.7402 15.6147C15.7402 15.6146 15.7402 15.6145 15.7402 15.6144C15.7402 15.6143 15.7402 15.6142 15.7402 15.614C15.7402 15.6139 15.7402 15.6138 15.7402 15.6137C15.7402 15.6136 15.7402 15.6135 15.7402 15.6134C15.7402 15.6133 15.7402 15.6132 15.7402 15.613C15.7402 15.6129 15.7402 15.6128 15.7402 15.6127C15.7402 15.6126 15.7402 15.6125 15.7402 15.6124C15.7402 15.6123 15.7402 15.6122 15.7402 15.6121C15.7402 15.6119 15.7402 15.6118 15.7402 15.6117C15.7402 15.6116 15.7402 15.6115 15.7402 15.6114C15.7402 15.6113 15.7402 15.6112 15.7402 15.6111C15.7402 15.6109 15.7402 15.6108 15.7402 15.6107C15.7402 15.6106 15.7402 15.6105 15.7402 15.6104C15.7402 15.6103 15.7402 15.6102 15.7402 15.6101C15.7402 15.61 15.7402 15.6098 15.7402 15.6097C15.7402 15.6096 15.7402 15.6095 15.7402 15.6094C15.7402 15.6093 15.7402 15.6092 15.7402 15.6091C15.7402 15.609 15.7402 15.6088 15.7402 15.6087C15.7402 15.6086 15.7402 15.6085 15.7402 15.6084C15.7402 15.6083 15.7402 15.6082 15.7402 15.6081C15.7402 15.608 15.7402 15.6079 15.7402 15.6077C15.7402 15.6076 15.7402 15.6075 15.7402 15.6074C15.7402 15.6073 15.7402 15.6072 15.7402 15.6071C15.7402 15.607 15.7402 15.6069 15.7402 15.6067C15.7402 15.6066 15.7402 15.6065 15.7402 15.6064C15.7402 15.6063 15.7402 15.6062 15.7402 15.6061C15.7402 15.606 15.7402 15.6059 15.7402 15.6058C15.7402 15.6056 15.7402 15.6055 15.7402 15.6054C15.7402 15.6053 15.7402 15.6052 15.7402 15.6051C15.7402 15.605 15.7402 15.6049 15.7402 15.6048C15.7402 15.6046 15.7402 15.6045 15.7402 15.6044C15.7402 15.6043 15.7402 15.6042 15.7402 15.6041C15.7402 15.604 15.7402 15.6039 15.7402 15.6038C15.7402 15.6037 15.7402 15.6035 15.7402 15.6034C15.7402 15.6033 15.7402 15.6032 15.7402 15.6031C15.7402 15.603 15.7402 15.6029 15.7402 15.6028C15.7402 15.6027 15.7402 15.6025 15.7402 15.6024C15.7402 15.6023 15.7402 15.6022 15.7402 15.6021C15.7402 15.602 15.7402 15.6019 15.7402 15.6018C15.7402 15.6017 15.7402 15.6016 15.7402 15.6014C15.7402 15.6013 15.7402 15.6012 15.7402 15.6011C15.7402 15.601 15.7402 15.6009 15.7402 15.6008C15.7402 15.6007 15.7402 15.6006 15.7402 15.6004C15.7402 15.6003 15.7402 15.6002 15.7402 15.6001C15.7402 15.6 15.7402 15.5999 15.7402 15.5998C15.7402 15.5997 15.7402 15.5996 15.7402 15.5995C15.7402 15.5993 15.7402 15.5992 15.7402 15.5991C15.7402 15.599 15.7402 15.5989 15.7402 15.5988C15.7402 15.5987 15.7402 15.5986 15.7402 15.5985C15.7402 15.5983 15.7402 15.5982 15.7402 15.5981C15.7402 15.598 15.7402 15.5979 15.7402 15.5978C15.7402 15.5977 15.7402 15.5976 15.7402 15.5975C15.7402 15.5974 15.7402 15.5972 15.7402 15.5971C15.7402 15.597 15.7402 15.5969 15.7402 15.5968C15.7402 15.5967 15.7402 15.5966 15.7402 15.5965C15.7402 15.5964 15.7402 15.5962 15.7402 15.5961C15.7402 15.596 15.7402 15.5959 15.7402 15.5958C15.7402 15.5957 15.7402 15.5956 15.7402 15.5955C15.7402 15.5954 15.7402 15.5953 15.7402 15.5951C15.7402 15.595 15.7402 15.5949 15.7402 15.5948C15.7402 15.5947 15.7402 15.5946 15.7402 15.5945C15.7402 15.5944 15.7402 15.5943 15.7402 15.5941C15.7402 15.594 15.7402 15.5939 15.7402 15.5938C15.7402 15.5937 15.7402 15.5936 15.7402 15.5935C15.7402 15.5934 15.7402 15.5933 15.7402 15.5931C15.7402 15.593 15.7402 15.5929 15.7402 15.5928C15.7402 15.5927 15.7402 15.5926 15.7402 15.5925C15.7402 15.5924 15.7402 15.5923 15.7402 15.5922C15.7402 15.592 15.7402 15.5919 15.7402 15.5918C15.7402 15.5917 15.7402 15.5916 15.7402 15.5915C15.7402 15.5914 15.7402 15.5913 15.7402 15.5912C15.7402 15.591 15.7402 15.5909 15.7402 15.5908C15.7402 15.5907 15.7402 15.5906 15.7402 15.5905C15.7402 15.5904 15.7402 15.5903 15.7402 15.5902C15.7402 15.5901 15.7402 15.5899 15.7402 15.5898C15.7402 15.5897 15.7402 15.5896 15.7402 15.5895C15.7402 15.5894 15.7402 15.5893 15.7402 15.5892C15.7402 15.5891 15.7402 15.5889 15.7402 15.5888C15.7402 15.5887 15.7402 15.5886 15.7402 15.5885C15.7402 15.5884 15.7402 15.5883 15.7402 15.5882C15.7402 15.5881 15.7402 15.588 15.7402 15.5878C15.7402 15.5877 15.7402 15.5876 15.7402 15.5875C15.7402 15.5874 15.7402 15.5873 15.7402 15.5872C15.7402 15.5871 15.7402 15.587 15.7402 15.5868C15.7402 15.5867 15.7402 15.5866 15.7402 15.5865C15.7402 15.5864 15.7402 15.5863 15.7402 15.5862C15.7402 15.5861 15.7402 15.586 15.7402 15.5858C15.7402 15.5857 15.7402 15.5856 15.7402 15.5855C15.7402 15.5854 15.7402 15.5853 15.7402 15.5852C15.7402 15.5851 15.7402 15.585 15.7402 15.5849C15.7402 15.5847 15.7402 15.5846 15.7402 15.5845C15.7402 15.5844 15.7402 15.5843 15.7402 15.5842C15.7402 15.5841 15.7402 15.584 15.7402 15.5839C15.7402 15.5837 15.7402 15.5836 15.7402 15.5835C15.7402 15.5834 15.7402 15.5833 15.7402 15.5832C15.7402 15.5831 15.7402 15.583 15.7402 15.5829C15.7402 15.5827 15.7402 15.5826 15.7402 15.5825C15.7402 15.5824 15.7402 15.5823 15.7402 15.5822C15.7402 15.5821 15.7402 15.582 15.7402 15.5819C15.7402 15.5818 15.7402 15.5816 15.7402 15.5815C15.7402 15.5814 15.7402 15.5813 15.7402 15.5812C15.7402 15.5811 15.7402 15.581 15.7402 15.5809C15.7402 15.5808 15.7402 15.5806 15.7402 15.5805C15.7402 15.5804 15.7402 15.5803 15.7402 15.5802C15.7402 15.5801 15.7402 15.58 15.7402 15.5799C15.7402 15.5798 15.7402 15.5796 15.7402 15.5795C15.7402 15.5794 15.7402 15.5793 15.7402 15.5792C15.7402 15.5791 15.7402 15.579 15.7402 15.5789C15.7402 15.5788 15.7402 15.5786 15.7402 15.5785C15.7402 15.5784 15.7402 15.5783 15.7402 15.5782C15.7402 15.5781 15.7402 15.578 15.7402 15.5779C15.7402 15.5778 15.7402 15.5777 15.7402 15.5775C15.7402 15.5774 15.7402 15.5773 15.7402 15.5772C15.7402 15.5771 15.7402 15.577 15.7402 15.5769C15.7402 15.5768 15.7402 15.5767 15.7402 15.5765C15.7402 15.5764 15.7402 15.5763 15.7402 15.5762C15.7402 15.5761 15.7402 15.576 15.7402 15.5759C15.7402 15.5758 15.7402 15.5757 15.7402 15.5755C15.7402 15.5754 15.7402 15.5753 15.7402 15.5752C15.7402 15.5751 15.7402 15.575 15.7402 15.5749C15.7402 15.5748 15.7402 15.5747 15.7402 15.5745C15.7402 15.5744 15.7402 15.5743 15.7402 15.5742C15.7402 15.5741 15.7402 15.574 15.7402 15.5739C15.7402 15.5738 15.7402 15.5737 15.7402 15.5735C15.7402 15.5734 15.7402 15.5733 15.7402 15.5732C15.7402 15.5731 15.7402 15.573 15.7402 15.5729C15.7402 15.5728 15.7402 15.5727 15.7402 15.5725C15.7402 15.5724 15.7402 15.5723 15.7402 15.5722C15.7402 15.5721 15.7402 15.572 15.7402 15.5719C15.7402 15.5718 15.7402 15.5717 15.7402 15.5716C15.7402 15.5714 15.7402 15.5713 15.7402 15.5712C15.7402 15.5711 15.7402 15.571 15.7402 15.5709C15.7402 15.5708 15.7402 15.5707 15.7402 15.5706C15.7402 15.5704 15.7402 15.5703 15.7402 15.5702C15.7402 15.5701 15.7402 15.57 15.7402 15.5699C15.7402 15.5698 15.7402 15.5697 15.7402 15.5696C15.7402 15.5694 15.7402 15.5693 15.7402 15.5692C15.7402 15.5691 15.7402 15.569 15.7402 15.5689C15.7402 15.5688 15.7402 15.5687 15.7402 15.5686C15.7402 15.5684 15.7402 15.5683 15.7402 15.5682C15.7402 15.5681 15.7402 15.568 15.7402 15.5679C15.7402 15.5678 15.7402 15.5677 15.7402 15.5676C15.7402 15.5674 15.7402 15.5673 15.7402 15.5672C15.7402 15.5671 15.7402 15.567 15.7402 15.5669C15.7402 15.5668 15.7402 15.5667 15.7402 15.5666C15.7402 15.5664 15.7402 15.5663 15.7402 15.5662C15.7402 15.5661 15.7402 15.566 15.7402 15.5659C15.7402 15.5658 15.7402 15.5657 15.7402 15.5655C15.7402 15.5654 15.7402 15.5653 15.7402 15.5652C15.7402 15.5651 15.7402 15.565 15.7402 15.5649C15.7402 15.5648 15.7402 15.5647 15.7402 15.5645C15.7402 15.5644 15.7402 15.5643 15.7402 15.5642C15.7402 15.5641 15.7402 15.564 15.7402 15.5639C15.7402 15.5638 15.7402 15.5637 15.7402 15.5635C15.7402 15.5634 15.7402 15.5633 15.7402 15.5632C15.7402 15.5631 15.7402 15.563 15.7402 15.5629C15.7402 15.5628 15.7402 15.5627 15.7402 15.5625C15.7402 15.5624 15.7402 15.5623 15.7402 15.5622C15.7402 15.5621 15.7402 15.562 15.7402 15.5619C15.7402 15.5618 15.7402 15.5617 15.7402 15.5615C15.7402 15.5614 15.7402 15.5613 15.7402 15.5612C15.7402 15.5611 15.7402 15.561 15.7402 15.5609C15.7402 15.5608 15.7402 15.5607 15.7402 15.5605C15.7402 15.5604 15.7402 15.5603 15.7402 15.5602C15.7402 15.5601 15.7402 15.56 15.7402 15.5599C15.7402 15.5598 15.7402 15.5596 15.7402 15.5595C15.7402 15.5594 15.7402 15.5593 15.7402 15.5592C15.7402 15.5591 15.7402 15.559 15.7402 15.5589C15.7402 15.5588 15.7402 15.5586 15.7402 15.5585C15.7402 15.5584 15.7402 15.5583 15.7402 15.5582C15.7402 15.5581 15.7402 15.558 15.7402 15.5579C15.7402 15.5578 15.7402 15.5576 15.7402 15.5575C15.7402 15.5574 15.7402 15.5573 15.7402 15.5572C15.7402 15.5571 15.7402 15.557 15.7402 15.5569C15.7402 15.5567 15.7402 15.5566 15.7402 15.5565C15.7402 15.5564 15.7402 15.5563 15.7402 15.5562C15.7402 15.5561 15.7402 15.556 15.7402 15.5559C15.7402 15.5557 15.7402 15.5556 15.7402 15.5555C15.7402 15.5554 15.7402 15.5553 15.7402 15.5552C15.7402 15.5551 15.7402 15.555 15.7402 15.5549C15.7402 15.5547 15.7402 15.5546 15.7402 15.5545C15.7402 15.5544 15.7402 15.5543 15.7402 15.5542C15.7402 15.5541 15.7402 15.554 15.7402 15.5538C15.7402 15.5537 15.7402 15.5536 15.7402 15.5535C15.7402 15.5534 15.7402 15.5533 15.7402 15.5532C15.7402 15.5531 15.7402 15.553 15.7402 15.5528C15.7402 15.5527 15.7402 15.5526 15.7402 15.5525C15.7402 15.5524 15.7402 15.5523 15.7402 15.5522C15.7402 15.5521 15.7402 15.5519 15.7402 15.5518C15.7402 15.5517 15.7402 15.5516 15.7402 15.5515C15.7402 15.5514 15.7402 15.5513 15.7402 15.5512C15.7402 15.5511 15.7402 15.5509 15.7402 15.5508C15.7402 15.5507 15.7402 15.5506 15.7402 15.5505C15.7402 15.5504 15.7402 15.5503 15.7402 15.5502C15.7402 15.55 15.7402 15.5499 15.7402 15.5498C15.7402 15.5497 15.7402 15.5496 15.7402 15.5495C15.7402 15.5494 15.7402 15.5493 15.7402 15.5491C15.7402 15.549 15.7402 15.5489 15.7402 15.5488C15.7402 15.5487 15.7402 15.5486 15.7402 15.5485C15.7402 15.5484 15.7402 15.5483 15.7402 15.5481C15.7402 15.548 15.7402 15.5479 15.7402 15.5478C15.7402 15.5477 15.7402 15.5476 15.7402 15.5475C15.7402 15.5474 15.7402 15.5472 15.7402 15.5471C15.7402 15.547 15.7402 15.5469 15.7402 15.5468C15.7402 15.5467 15.7402 15.5466 15.7402 15.5465C15.7402 15.5463 15.7402 15.5462 15.7402 15.5461C15.7402 15.546 15.7402 15.5459 15.7402 15.5458C15.7402 15.5457 15.7402 15.5456 15.7402 15.5455C15.7402 15.5453 15.7402 15.5452 15.7402 15.5451C15.7402 15.545 15.7402 15.5449 15.7402 15.5448C15.7402 15.5447 15.7402 15.5446 15.7402 15.5444C15.7402 15.5443 15.7402 15.5442 15.7402 15.5441C15.7402 15.544 15.7402 15.5439 15.7402 15.5438C15.7402 15.5437 15.7402 15.5435 15.7402 15.5434C15.7402 15.5433 15.7402 15.5432 15.7402 15.5431C15.7402 15.543 15.7402 15.5429 15.7402 15.5428C15.7402 15.5426 15.7402 15.5425 15.7402 15.5424C15.7402 15.5423 15.7402 15.5422 15.7402 15.5421C15.7402 15.542 15.7402 15.5419 15.7402 15.5417C15.7402 15.5416 15.7402 15.5415 15.7402 15.5414C15.7402 15.5413 15.7402 15.5412 15.7402 15.5411C15.7402 15.541 15.7402 15.5408 15.7402 15.5407C15.7402 15.5406 15.7402 15.5405 15.7402 15.5404C15.7402 15.5403 15.7402 15.5402 15.7402 15.5401C15.7402 15.5399 15.7402 15.5398 15.7402 15.5397C15.7402 15.5396 15.7402 15.5395 15.7402 15.5394C15.7402 15.5393 15.7402 15.5392 15.7402 15.539C15.7402 15.5389 15.7402 15.5388 15.7402 15.5387C15.7402 15.5386 15.7402 15.5385 15.7402 15.5384C15.7402 15.5383 15.7402 15.5381 15.7402 15.538C15.7402 15.5379 15.7402 15.5378 15.7402 15.5377C15.7402 15.5376 15.7402 15.5375 15.7402 15.5374C15.7402 15.5372 15.7402 15.5371 15.7402 15.537C15.7402 15.5369 15.7402 15.5368 15.7402 15.5367C15.7402 15.5366 15.7402 15.5365 15.7402 15.5363C15.7402 15.5362 15.7402 15.5361 15.7402 15.536C15.7402 15.5359 15.7402 15.5358 15.7402 15.5357C15.7402 15.5356 15.7402 15.5354 15.7402 15.5353C15.7402 15.5352 15.7402 15.5351 15.7402 15.535C15.7402 15.5349 15.7402 15.5348 15.7402 15.5347C15.7402 15.5345 15.7402 15.5344 15.7402 15.5343C15.7402 15.5342 15.7402 15.5341 15.7402 15.534C15.7402 15.5339 15.7402 15.5337 15.7402 15.5336C15.7402 15.5335 15.7402 15.5334 15.7402 15.5333C15.7402 15.5332 15.7402 15.5331 15.7402 15.533C15.7402 15.5328 15.7402 15.5327 15.7402 15.5326C15.7402 15.5325 15.7402 15.5324 15.7402 15.5323C15.7402 15.5322 15.7402 15.5321 15.7402 15.5319C15.7402 15.5318 15.7402 15.5317 15.7402 15.5316C15.7402 15.5315 15.7402 15.5314 15.7402 15.5313C15.7402 15.5312 15.7402 15.531 15.7402 15.5309C15.7402 15.5308 15.7402 15.5307 15.7402 15.5306C15.7402 15.5305 15.7402 15.5304 15.7402 15.5302C15.7402 15.5301 15.7402 15.53 15.7402 15.5299C15.7402 15.5298 15.7402 15.5297 15.7402 15.5296C15.7402 15.5295 15.7402 15.5293 15.7402 15.5292C15.7402 15.5291 15.7402 15.529 15.7402 15.5289C15.7402 15.5288 15.7402 15.5287 15.7402 15.5285C15.7402 15.5284 15.7402 15.5283 15.7402 15.5282C15.7402 15.5281 15.7402 15.528 15.7402 15.5279C15.7402 15.5278 15.7402 15.5276 15.7402 15.5275C15.7402 15.5274 15.7402 15.5273 15.7402 15.5272C15.7402 15.5271 15.7402 15.527 15.7402 15.5268C15.7402 15.5267 15.7402 15.5266 15.7402 15.5265C15.7402 15.5264 15.7402 15.5263 15.7402 15.5262C15.7402 15.5261 15.7402 15.5259 15.7402 15.5258C15.7402 15.5257 15.7402 15.5256 15.7402 15.5255C15.7402 15.5254 15.7402 15.5253 15.7402 15.5251C15.7402 15.525 15.7402 15.5249 15.7402 15.5248C15.7402 15.5247 15.7402 15.5246 15.7402 15.5245C15.7402 15.5244 15.7402 15.5242 15.7402 15.5241C15.7402 15.524 15.7402 15.5239 15.7402 15.5238C15.7402 15.5237 15.7402 15.5236 15.7402 15.5234C15.7402 15.5233 15.7402 15.5232 15.7402 15.5231C15.7402 15.523 15.7402 15.5229 15.7402 15.5228C15.7402 15.5226 15.7402 15.5225 15.7402 15.5224C15.7402 15.5223 15.7402 15.5222 15.7402 15.5221C15.7402 15.522 15.7402 15.5219 15.7402 15.5217C15.7402 15.5216 15.7402 15.5215 15.7402 15.5214C15.7402 15.5213 15.7402 15.5212 15.7402 15.5211C15.7402 15.5209 15.7402 15.5208 15.7402 15.5207C15.7402 15.5206 15.7402 15.5205 15.7402 15.5204C15.7402 15.5203 15.7402 15.5201 15.7402 15.52C15.7402 15.5199 15.7402 15.5198 15.7402 15.5197C15.7402 15.5196 15.7402 15.5195 15.7402 15.5193C15.7402 15.5192 15.7402 15.5191 15.7402 15.519C15.7402 15.5189 15.7402 15.5188 15.7402 15.5187C15.7402 15.5186 15.7402 15.5184 15.7402 15.5183C15.7402 15.5182 15.7402 15.5181 15.7402 15.518C15.7402 15.5179 15.7402 15.5178 15.7402 15.5176C15.7402 15.5175 15.7402 15.5174 15.7402 15.5173H-9.25977C-9.25977 15.5174 -9.25977 15.5175 -9.25977 15.5176C-9.25977 15.5178 -9.25977 15.5179 -9.25977 15.518C-9.25977 15.5181 -9.25977 15.5182 -9.25977 15.5183C-9.25977 15.5184 -9.25977 15.5186 -9.25977 15.5187C-9.25977 15.5188 -9.25977 15.5189 -9.25977 15.519C-9.25977 15.5191 -9.25977 15.5192 -9.25977 15.5193C-9.25977 15.5195 -9.25977 15.5196 -9.25977 15.5197C-9.25977 15.5198 -9.25977 15.5199 -9.25977 15.52C-9.25977 15.5201 -9.25977 15.5203 -9.25977 15.5204C-9.25977 15.5205 -9.25977 15.5206 -9.25977 15.5207C-9.25977 15.5208 -9.25977 15.5209 -9.25977 15.5211C-9.25977 15.5212 -9.25977 15.5213 -9.25977 15.5214C-9.25977 15.5215 -9.25977 15.5216 -9.25977 15.5217C-9.25977 15.5219 -9.25977 15.522 -9.25977 15.5221C-9.25977 15.5222 -9.25977 15.5223 -9.25977 15.5224C-9.25977 15.5225 -9.25977 15.5226 -9.25977 15.5228C-9.25977 15.5229 -9.25977 15.523 -9.25977 15.5231C-9.25977 15.5232 -9.25977 15.5233 -9.25977 15.5234C-9.25977 15.5236 -9.25977 15.5237 -9.25977 15.5238C-9.25977 15.5239 -9.25977 15.524 -9.25977 15.5241C-9.25977 15.5242 -9.25977 15.5244 -9.25977 15.5245C-9.25977 15.5246 -9.25977 15.5247 -9.25977 15.5248C-9.25977 15.5249 -9.25977 15.525 -9.25977 15.5251C-9.25977 15.5253 -9.25977 15.5254 -9.25977 15.5255C-9.25977 15.5256 -9.25977 15.5257 -9.25977 15.5258C-9.25977 15.5259 -9.25977 15.5261 -9.25977 15.5262C-9.25977 15.5263 -9.25977 15.5264 -9.25977 15.5265C-9.25977 15.5266 -9.25977 15.5267 -9.25977 15.5268C-9.25977 15.527 -9.25977 15.5271 -9.25977 15.5272C-9.25977 15.5273 -9.25977 15.5274 -9.25977 15.5275C-9.25977 15.5276 -9.25977 15.5278 -9.25977 15.5279C-9.25977 15.528 -9.25977 15.5281 -9.25977 15.5282C-9.25977 15.5283 -9.25977 15.5284 -9.25977 15.5285C-9.25977 15.5287 -9.25977 15.5288 -9.25977 15.5289C-9.25977 15.529 -9.25977 15.5291 -9.25977 15.5292C-9.25977 15.5293 -9.25977 15.5295 -9.25977 15.5296C-9.25977 15.5297 -9.25977 15.5298 -9.25977 15.5299C-9.25977 15.53 -9.25977 15.5301 -9.25977 15.5302C-9.25977 15.5304 -9.25977 15.5305 -9.25977 15.5306C-9.25977 15.5307 -9.25977 15.5308 -9.25977 15.5309C-9.25977 15.531 -9.25977 15.5312 -9.25977 15.5313C-9.25977 15.5314 -9.25977 15.5315 -9.25977 15.5316C-9.25977 15.5317 -9.25977 15.5318 -9.25977 15.5319C-9.25977 15.5321 -9.25977 15.5322 -9.25977 15.5323C-9.25977 15.5324 -9.25977 15.5325 -9.25977 15.5326C-9.25977 15.5327 -9.25977 15.5328 -9.25977 15.533C-9.25977 15.5331 -9.25977 15.5332 -9.25977 15.5333C-9.25977 15.5334 -9.25977 15.5335 -9.25977 15.5336C-9.25977 15.5337 -9.25977 15.5339 -9.25977 15.534C-9.25977 15.5341 -9.25977 15.5342 -9.25977 15.5343C-9.25977 15.5344 -9.25977 15.5345 -9.25977 15.5347C-9.25977 15.5348 -9.25977 15.5349 -9.25977 15.535C-9.25977 15.5351 -9.25977 15.5352 -9.25977 15.5353C-9.25977 15.5354 -9.25977 15.5356 -9.25977 15.5357C-9.25977 15.5358 -9.25977 15.5359 -9.25977 15.536C-9.25977 15.5361 -9.25977 15.5362 -9.25977 15.5363C-9.25977 15.5365 -9.25977 15.5366 -9.25977 15.5367C-9.25977 15.5368 -9.25977 15.5369 -9.25977 15.537C-9.25977 15.5371 -9.25977 15.5372 -9.25977 15.5374C-9.25977 15.5375 -9.25977 15.5376 -9.25977 15.5377C-9.25977 15.5378 -9.25977 15.5379 -9.25977 15.538C-9.25977 15.5381 -9.25977 15.5383 -9.25977 15.5384C-9.25977 15.5385 -9.25977 15.5386 -9.25977 15.5387C-9.25977 15.5388 -9.25977 15.5389 -9.25977 15.539C-9.25977 15.5392 -9.25977 15.5393 -9.25977 15.5394C-9.25977 15.5395 -9.25977 15.5396 -9.25977 15.5397C-9.25977 15.5398 -9.25977 15.5399 -9.25977 15.5401C-9.25977 15.5402 -9.25977 15.5403 -9.25977 15.5404C-9.25977 15.5405 -9.25977 15.5406 -9.25977 15.5407C-9.25977 15.5408 -9.25977 15.541 -9.25977 15.5411C-9.25977 15.5412 -9.25977 15.5413 -9.25977 15.5414C-9.25977 15.5415 -9.25977 15.5416 -9.25977 15.5417C-9.25977 15.5419 -9.25977 15.542 -9.25977 15.5421C-9.25977 15.5422 -9.25977 15.5423 -9.25977 15.5424C-9.25977 15.5425 -9.25977 15.5426 -9.25977 15.5428C-9.25977 15.5429 -9.25977 15.543 -9.25977 15.5431C-9.25977 15.5432 -9.25977 15.5433 -9.25977 15.5434C-9.25977 15.5435 -9.25977 15.5437 -9.25977 15.5438C-9.25977 15.5439 -9.25977 15.544 -9.25977 15.5441C-9.25977 15.5442 -9.25977 15.5443 -9.25977 15.5444C-9.25977 15.5446 -9.25977 15.5447 -9.25977 15.5448C-9.25977 15.5449 -9.25977 15.545 -9.25977 15.5451C-9.25977 15.5452 -9.25977 15.5453 -9.25977 15.5455C-9.25977 15.5456 -9.25977 15.5457 -9.25977 15.5458C-9.25977 15.5459 -9.25977 15.546 -9.25977 15.5461C-9.25977 15.5462 -9.25977 15.5463 -9.25977 15.5465C-9.25977 15.5466 -9.25977 15.5467 -9.25977 15.5468C-9.25977 15.5469 -9.25977 15.547 -9.25977 15.5471C-9.25977 15.5472 -9.25977 15.5474 -9.25977 15.5475C-9.25977 15.5476 -9.25977 15.5477 -9.25977 15.5478C-9.25977 15.5479 -9.25977 15.548 -9.25977 15.5481C-9.25977 15.5483 -9.25977 15.5484 -9.25977 15.5485C-9.25977 15.5486 -9.25977 15.5487 -9.25977 15.5488C-9.25977 15.5489 -9.25977 15.549 -9.25977 15.5491C-9.25977 15.5493 -9.25977 15.5494 -9.25977 15.5495C-9.25977 15.5496 -9.25977 15.5497 -9.25977 15.5498C-9.25977 15.5499 -9.25977 15.55 -9.25977 15.5502C-9.25977 15.5503 -9.25977 15.5504 -9.25977 15.5505C-9.25977 15.5506 -9.25977 15.5507 -9.25977 15.5508C-9.25977 15.5509 -9.25977 15.5511 -9.25977 15.5512C-9.25977 15.5513 -9.25977 15.5514 -9.25977 15.5515C-9.25977 15.5516 -9.25977 15.5517 -9.25977 15.5518C-9.25977 15.5519 -9.25977 15.5521 -9.25977 15.5522C-9.25977 15.5523 -9.25977 15.5524 -9.25977 15.5525C-9.25977 15.5526 -9.25977 15.5527 -9.25977 15.5528C-9.25977 15.553 -9.25977 15.5531 -9.25977 15.5532C-9.25977 15.5533 -9.25977 15.5534 -9.25977 15.5535C-9.25977 15.5536 -9.25977 15.5537 -9.25977 15.5538C-9.25977 15.554 -9.25977 15.5541 -9.25977 15.5542C-9.25977 15.5543 -9.25977 15.5544 -9.25977 15.5545C-9.25977 15.5546 -9.25977 15.5547 -9.25977 15.5549C-9.25977 15.555 -9.25977 15.5551 -9.25977 15.5552C-9.25977 15.5553 -9.25977 15.5554 -9.25977 15.5555C-9.25977 15.5556 -9.25977 15.5557 -9.25977 15.5559C-9.25977 15.556 -9.25977 15.5561 -9.25977 15.5562C-9.25977 15.5563 -9.25977 15.5564 -9.25977 15.5565C-9.25977 15.5566 -9.25977 15.5567 -9.25977 15.5569C-9.25977 15.557 -9.25977 15.5571 -9.25977 15.5572C-9.25977 15.5573 -9.25977 15.5574 -9.25977 15.5575C-9.25977 15.5576 -9.25977 15.5578 -9.25977 15.5579C-9.25977 15.558 -9.25977 15.5581 -9.25977 15.5582C-9.25977 15.5583 -9.25977 15.5584 -9.25977 15.5585C-9.25977 15.5586 -9.25977 15.5588 -9.25977 15.5589C-9.25977 15.559 -9.25977 15.5591 -9.25977 15.5592C-9.25977 15.5593 -9.25977 15.5594 -9.25977 15.5595C-9.25977 15.5596 -9.25977 15.5598 -9.25977 15.5599C-9.25977 15.56 -9.25977 15.5601 -9.25977 15.5602C-9.25977 15.5603 -9.25977 15.5604 -9.25977 15.5605C-9.25977 15.5607 -9.25977 15.5608 -9.25977 15.5609C-9.25977 15.561 -9.25977 15.5611 -9.25977 15.5612C-9.25977 15.5613 -9.25977 15.5614 -9.25977 15.5615C-9.25977 15.5617 -9.25977 15.5618 -9.25977 15.5619C-9.25977 15.562 -9.25977 15.5621 -9.25977 15.5622C-9.25977 15.5623 -9.25977 15.5624 -9.25977 15.5625C-9.25977 15.5627 -9.25977 15.5628 -9.25977 15.5629C-9.25977 15.563 -9.25977 15.5631 -9.25977 15.5632C-9.25977 15.5633 -9.25977 15.5634 -9.25977 15.5635C-9.25977 15.5637 -9.25977 15.5638 -9.25977 15.5639C-9.25977 15.564 -9.25977 15.5641 -9.25977 15.5642C-9.25977 15.5643 -9.25977 15.5644 -9.25977 15.5645C-9.25977 15.5647 -9.25977 15.5648 -9.25977 15.5649C-9.25977 15.565 -9.25977 15.5651 -9.25977 15.5652C-9.25977 15.5653 -9.25977 15.5654 -9.25977 15.5655C-9.25977 15.5657 -9.25977 15.5658 -9.25977 15.5659C-9.25977 15.566 -9.25977 15.5661 -9.25977 15.5662C-9.25977 15.5663 -9.25977 15.5664 -9.25977 15.5666C-9.25977 15.5667 -9.25977 15.5668 -9.25977 15.5669C-9.25977 15.567 -9.25977 15.5671 -9.25977 15.5672C-9.25977 15.5673 -9.25977 15.5674 -9.25977 15.5676C-9.25977 15.5677 -9.25977 15.5678 -9.25977 15.5679C-9.25977 15.568 -9.25977 15.5681 -9.25977 15.5682C-9.25977 15.5683 -9.25977 15.5684 -9.25977 15.5686C-9.25977 15.5687 -9.25977 15.5688 -9.25977 15.5689C-9.25977 15.569 -9.25977 15.5691 -9.25977 15.5692C-9.25977 15.5693 -9.25977 15.5694 -9.25977 15.5696C-9.25977 15.5697 -9.25977 15.5698 -9.25977 15.5699C-9.25977 15.57 -9.25977 15.5701 -9.25977 15.5702C-9.25977 15.5703 -9.25977 15.5704 -9.25977 15.5706C-9.25977 15.5707 -9.25977 15.5708 -9.25977 15.5709C-9.25977 15.571 -9.25977 15.5711 -9.25977 15.5712C-9.25977 15.5713 -9.25977 15.5714 -9.25977 15.5716C-9.25977 15.5717 -9.25977 15.5718 -9.25977 15.5719C-9.25977 15.572 -9.25977 15.5721 -9.25977 15.5722C-9.25977 15.5723 -9.25977 15.5724 -9.25977 15.5725C-9.25977 15.5727 -9.25977 15.5728 -9.25977 15.5729C-9.25977 15.573 -9.25977 15.5731 -9.25977 15.5732C-9.25977 15.5733 -9.25977 15.5734 -9.25977 15.5735C-9.25977 15.5737 -9.25977 15.5738 -9.25977 15.5739C-9.25977 15.574 -9.25977 15.5741 -9.25977 15.5742C-9.25977 15.5743 -9.25977 15.5744 -9.25977 15.5745C-9.25977 15.5747 -9.25977 15.5748 -9.25977 15.5749C-9.25977 15.575 -9.25977 15.5751 -9.25977 15.5752C-9.25977 15.5753 -9.25977 15.5754 -9.25977 15.5755C-9.25977 15.5757 -9.25977 15.5758 -9.25977 15.5759C-9.25977 15.576 -9.25977 15.5761 -9.25977 15.5762C-9.25977 15.5763 -9.25977 15.5764 -9.25977 15.5765C-9.25977 15.5767 -9.25977 15.5768 -9.25977 15.5769C-9.25977 15.577 -9.25977 15.5771 -9.25977 15.5772C-9.25977 15.5773 -9.25977 15.5774 -9.25977 15.5775C-9.25977 15.5777 -9.25977 15.5778 -9.25977 15.5779C-9.25977 15.578 -9.25977 15.5781 -9.25977 15.5782C-9.25977 15.5783 -9.25977 15.5784 -9.25977 15.5785C-9.25977 15.5786 -9.25977 15.5788 -9.25977 15.5789C-9.25977 15.579 -9.25977 15.5791 -9.25977 15.5792C-9.25977 15.5793 -9.25977 15.5794 -9.25977 15.5795C-9.25977 15.5796 -9.25977 15.5798 -9.25977 15.5799C-9.25977 15.58 -9.25977 15.5801 -9.25977 15.5802C-9.25977 15.5803 -9.25977 15.5804 -9.25977 15.5805C-9.25977 15.5806 -9.25977 15.5808 -9.25977 15.5809C-9.25977 15.581 -9.25977 15.5811 -9.25977 15.5812C-9.25977 15.5813 -9.25977 15.5814 -9.25977 15.5815C-9.25977 15.5816 -9.25977 15.5818 -9.25977 15.5819C-9.25977 15.582 -9.25977 15.5821 -9.25977 15.5822C-9.25977 15.5823 -9.25977 15.5824 -9.25977 15.5825C-9.25977 15.5826 -9.25977 15.5827 -9.25977 15.5829C-9.25977 15.583 -9.25977 15.5831 -9.25977 15.5832C-9.25977 15.5833 -9.25977 15.5834 -9.25977 15.5835C-9.25977 15.5836 -9.25977 15.5837 -9.25977 15.5839C-9.25977 15.584 -9.25977 15.5841 -9.25977 15.5842C-9.25977 15.5843 -9.25977 15.5844 -9.25977 15.5845C-9.25977 15.5846 -9.25977 15.5847 -9.25977 15.5849C-9.25977 15.585 -9.25977 15.5851 -9.25977 15.5852C-9.25977 15.5853 -9.25977 15.5854 -9.25977 15.5855C-9.25977 15.5856 -9.25977 15.5857 -9.25977 15.5858C-9.25977 15.586 -9.25977 15.5861 -9.25977 15.5862C-9.25977 15.5863 -9.25977 15.5864 -9.25977 15.5865C-9.25977 15.5866 -9.25977 15.5867 -9.25977 15.5868C-9.25977 15.587 -9.25977 15.5871 -9.25977 15.5872C-9.25977 15.5873 -9.25977 15.5874 -9.25977 15.5875C-9.25977 15.5876 -9.25977 15.5877 -9.25977 15.5878C-9.25977 15.588 -9.25977 15.5881 -9.25977 15.5882C-9.25977 15.5883 -9.25977 15.5884 -9.25977 15.5885C-9.25977 15.5886 -9.25977 15.5887 -9.25977 15.5888C-9.25977 15.5889 -9.25977 15.5891 -9.25977 15.5892C-9.25977 15.5893 -9.25977 15.5894 -9.25977 15.5895C-9.25977 15.5896 -9.25977 15.5897 -9.25977 15.5898C-9.25977 15.5899 -9.25977 15.5901 -9.25977 15.5902C-9.25977 15.5903 -9.25977 15.5904 -9.25977 15.5905C-9.25977 15.5906 -9.25977 15.5907 -9.25977 15.5908C-9.25977 15.5909 -9.25977 15.591 -9.25977 15.5912C-9.25977 15.5913 -9.25977 15.5914 -9.25977 15.5915C-9.25977 15.5916 -9.25977 15.5917 -9.25977 15.5918C-9.25977 15.5919 -9.25977 15.592 -9.25977 15.5922C-9.25977 15.5923 -9.25977 15.5924 -9.25977 15.5925C-9.25977 15.5926 -9.25977 15.5927 -9.25977 15.5928C-9.25977 15.5929 -9.25977 15.593 -9.25977 15.5931C-9.25977 15.5933 -9.25977 15.5934 -9.25977 15.5935C-9.25977 15.5936 -9.25977 15.5937 -9.25977 15.5938C-9.25977 15.5939 -9.25977 15.594 -9.25977 15.5941C-9.25977 15.5943 -9.25977 15.5944 -9.25977 15.5945C-9.25977 15.5946 -9.25977 15.5947 -9.25977 15.5948C-9.25977 15.5949 -9.25977 15.595 -9.25977 15.5951C-9.25977 15.5953 -9.25977 15.5954 -9.25977 15.5955C-9.25977 15.5956 -9.25977 15.5957 -9.25977 15.5958C-9.25977 15.5959 -9.25977 15.596 -9.25977 15.5961C-9.25977 15.5962 -9.25977 15.5964 -9.25977 15.5965C-9.25977 15.5966 -9.25977 15.5967 -9.25977 15.5968C-9.25977 15.5969 -9.25977 15.597 -9.25977 15.5971C-9.25977 15.5972 -9.25977 15.5974 -9.25977 15.5975C-9.25977 15.5976 -9.25977 15.5977 -9.25977 15.5978C-9.25977 15.5979 -9.25977 15.598 -9.25977 15.5981C-9.25977 15.5982 -9.25977 15.5983 -9.25977 15.5985C-9.25977 15.5986 -9.25977 15.5987 -9.25977 15.5988C-9.25977 15.5989 -9.25977 15.599 -9.25977 15.5991C-9.25977 15.5992 -9.25977 15.5993 -9.25977 15.5995C-9.25977 15.5996 -9.25977 15.5997 -9.25977 15.5998C-9.25977 15.5999 -9.25977 15.6 -9.25977 15.6001C-9.25977 15.6002 -9.25977 15.6003 -9.25977 15.6004C-9.25977 15.6006 -9.25977 15.6007 -9.25977 15.6008C-9.25977 15.6009 -9.25977 15.601 -9.25977 15.6011C-9.25977 15.6012 -9.25977 15.6013 -9.25977 15.6014C-9.25977 15.6016 -9.25977 15.6017 -9.25977 15.6018C-9.25977 15.6019 -9.25977 15.602 -9.25977 15.6021C-9.25977 15.6022 -9.25977 15.6023 -9.25977 15.6024C-9.25977 15.6025 -9.25977 15.6027 -9.25977 15.6028C-9.25977 15.6029 -9.25977 15.603 -9.25977 15.6031C-9.25977 15.6032 -9.25977 15.6033 -9.25977 15.6034C-9.25977 15.6035 -9.25977 15.6037 -9.25977 15.6038C-9.25977 15.6039 -9.25977 15.604 -9.25977 15.6041C-9.25977 15.6042 -9.25977 15.6043 -9.25977 15.6044C-9.25977 15.6045 -9.25977 15.6046 -9.25977 15.6048C-9.25977 15.6049 -9.25977 15.605 -9.25977 15.6051C-9.25977 15.6052 -9.25977 15.6053 -9.25977 15.6054C-9.25977 15.6055 -9.25977 15.6056 -9.25977 15.6058C-9.25977 15.6059 -9.25977 15.606 -9.25977 15.6061C-9.25977 15.6062 -9.25977 15.6063 -9.25977 15.6064C-9.25977 15.6065 -9.25977 15.6066 -9.25977 15.6067C-9.25977 15.6069 -9.25977 15.607 -9.25977 15.6071C-9.25977 15.6072 -9.25977 15.6073 -9.25977 15.6074C-9.25977 15.6075 -9.25977 15.6076 -9.25977 15.6077C-9.25977 15.6079 -9.25977 15.608 -9.25977 15.6081C-9.25977 15.6082 -9.25977 15.6083 -9.25977 15.6084C-9.25977 15.6085 -9.25977 15.6086 -9.25977 15.6087C-9.25977 15.6088 -9.25977 15.609 -9.25977 15.6091C-9.25977 15.6092 -9.25977 15.6093 -9.25977 15.6094C-9.25977 15.6095 -9.25977 15.6096 -9.25977 15.6097C-9.25977 15.6098 -9.25977 15.61 -9.25977 15.6101C-9.25977 15.6102 -9.25977 15.6103 -9.25977 15.6104C-9.25977 15.6105 -9.25977 15.6106 -9.25977 15.6107C-9.25977 15.6108 -9.25977 15.6109 -9.25977 15.6111C-9.25977 15.6112 -9.25977 15.6113 -9.25977 15.6114C-9.25977 15.6115 -9.25977 15.6116 -9.25977 15.6117C-9.25977 15.6118 -9.25977 15.6119 -9.25977 15.6121C-9.25977 15.6122 -9.25977 15.6123 -9.25977 15.6124C-9.25977 15.6125 -9.25977 15.6126 -9.25977 15.6127C-9.25977 15.6128 -9.25977 15.6129 -9.25977 15.613C-9.25977 15.6132 -9.25977 15.6133 -9.25977 15.6134C-9.25977 15.6135 -9.25977 15.6136 -9.25977 15.6137C-9.25977 15.6138 -9.25977 15.6139 -9.25977 15.614C-9.25977 15.6142 -9.25977 15.6143 -9.25977 15.6144C-9.25977 15.6145 -9.25977 15.6146 -9.25977 15.6147C-9.25977 15.6148 -9.25977 15.6149 -9.25977 15.615C-9.25977 15.6151 -9.25977 15.6153 -9.25977 15.6154C-9.25977 15.6155 -9.25977 15.6156 -9.25977 15.6157C-9.25977 15.6158 -9.25977 15.6159 -9.25977 15.616C-9.25977 15.6161 -9.25977 15.6163 -9.25977 15.6164C-9.25977 15.6165 -9.25977 15.6166 -9.25977 15.6167C-9.25977 15.6168 -9.25977 15.6169 -9.25977 15.617C-9.25977 15.6171 -9.25977 15.6173 -9.25977 15.6174C-9.25977 15.6175 -9.25977 15.6176 -9.25977 15.6177C-9.25977 15.6178 -9.25977 15.6179 -9.25977 15.618C-9.25977 15.6181 -9.25977 15.6182 -9.25977 15.6184C-9.25977 15.6185 -9.25977 15.6186 -9.25977 15.6187C-9.25977 15.6188 -9.25977 15.6189 -9.25977 15.619C-9.25977 15.6191 -9.25977 15.6192 -9.25977 15.6194C-9.25977 15.6195 -9.25977 15.6196 -9.25977 15.6197C-9.25977 15.6198 -9.25977 15.6199 -9.25977 15.62C-9.25977 15.6201 -9.25977 15.6202 -9.25977 15.6203C-9.25977 15.6205 -9.25977 15.6206 -9.25977 15.6207C-9.25977 15.6208 -9.25977 15.6209 -9.25977 15.621C-9.25977 15.6211 -9.25977 15.6212 -9.25977 15.6213C-9.25977 15.6215 -9.25977 15.6216 -9.25977 15.6217C-9.25977 15.6218 -9.25977 15.6219 -9.25977 15.622C-9.25977 15.6221 -9.25977 15.6222 -9.25977 15.6223C-9.25977 15.6225 -9.25977 15.6226 -9.25977 15.6227C-9.25977 15.6228 -9.25977 15.6229 -9.25977 15.623C-9.25977 15.6231 -9.25977 15.6232 -9.25977 15.6233C-9.25977 15.6234 -9.25977 15.6236 -9.25977 15.6237C-9.25977 15.6238 -9.25977 15.6239 -9.25977 15.624C-9.25977 15.6241 -9.25977 15.6242 -9.25977 15.6243C-9.25977 15.6244 -9.25977 15.6246 -9.25977 15.6247C-9.25977 15.6248 -9.25977 15.6249 -9.25977 15.625C-9.25977 15.6251 -9.25977 15.6252 -9.25977 15.6253C-9.25977 15.6254 -9.25977 15.6256 -9.25977 15.6257C-9.25977 15.6258 -9.25977 15.6259 -9.25977 15.626C-9.25977 15.6261 -9.25977 15.6262 -9.25977 15.6263C-9.25977 15.6264 -9.25977 15.6266 -9.25977 15.6267C-9.25977 15.6268 -9.25977 15.6269 -9.25977 15.627C-9.25977 15.6271 -9.25977 15.6272 -9.25977 15.6273C-9.25977 15.6274 -9.25977 15.6275 -9.25977 15.6277C-9.25977 15.6278 -9.25977 15.6279 -9.25977 15.628C-9.25977 15.6281 -9.25977 15.6282 -9.25977 15.6283C-9.25977 15.6284 -9.25977 15.6285 -9.25977 15.6287C-9.25977 15.6288 -9.25977 15.6289 -9.25977 15.629C-9.25977 15.6291 -9.25977 15.6292 -9.25977 15.6293C-9.25977 15.6294 -9.25977 15.6295 -9.25977 15.6297C-9.25977 15.6298 -9.25977 15.6299 -9.25977 15.63C-9.25977 15.6301 -9.25977 15.6302 -9.25977 15.6303C-9.25977 15.6304 -9.25977 15.6305 -9.25977 15.6307C-9.25977 15.6308 -9.25977 15.6309 -9.25977 15.631C-9.25977 15.6311 -9.25977 15.6312 -9.25977 15.6313C-9.25977 15.6314 -9.25977 15.6315 -9.25977 15.6317C-9.25977 15.6318 -9.25977 15.6319 -9.25977 15.632C-9.25977 15.6321 -9.25977 15.6322 -9.25977 15.6323C-9.25977 15.6324 -9.25977 15.6325 -9.25977 15.6326C-9.25977 15.6328 -9.25977 15.6329 -9.25977 15.633C-9.25977 15.6331 -9.25977 15.6332 -9.25977 15.6333C-9.25977 15.6334 -9.25977 15.6335 -9.25977 15.6336C-9.25977 15.6338 -9.25977 15.6339 -9.25977 15.634C-9.25977 15.6341 -9.25977 15.6342 -9.25977 15.6343C-9.25977 15.6344 -9.25977 15.6345 -9.25977 15.6346C-9.25977 15.6348 -9.25977 15.6349 -9.25977 15.635C-9.25977 15.6351 -9.25977 15.6352 -9.25977 15.6353C-9.25977 15.6354 -9.25977 15.6355 -9.25977 15.6356C-9.25977 15.6358 -9.25977 15.6359 -9.25977 15.636C-9.25977 15.6361 -9.25977 15.6362 -9.25977 15.6363C-9.25977 15.6364 -9.25977 15.6365 -9.25977 15.6366C-9.25977 15.6368 -9.25977 15.6369 -9.25977 15.637C-9.25977 15.6371 -9.25977 15.6372 -9.25977 15.6373C-9.25977 15.6374 -9.25977 15.6375 -9.25977 15.6376C-9.25977 15.6378 -9.25977 15.6379 -9.25977 15.638C-9.25977 15.6381 -9.25977 15.6382 -9.25977 15.6383C-9.25977 15.6384 -9.25977 15.6385 -9.25977 15.6386C-9.25977 15.6388 -9.25977 15.6389 -9.25977 15.639C-9.25977 15.6391 -9.25977 15.6392 -9.25977 15.6393C-9.25977 15.6394 -9.25977 15.6395 -9.25977 15.6396C-9.25977 15.6398 -9.25977 15.6399 -9.25977 15.64C-9.25977 15.6401 -9.25977 15.6402 -9.25977 15.6403C-9.25977 15.6404 -9.25977 15.6405 -9.25977 15.6406C-9.25977 15.6408 -9.25977 15.6409 -9.25977 15.641C-9.25977 15.6411 -9.25977 15.6412 -9.25977 15.6413C-9.25977 15.6414 -9.25977 15.6415 -9.25977 15.6416C-9.25977 15.6418 -9.25977 15.6419 -9.25977 15.642C-9.25977 15.6421 -9.25977 15.6422 -9.25977 15.6423C-9.25977 15.6424 -9.25977 15.6425 -9.25977 15.6427C-9.25977 15.6428 -9.25977 15.6429 -9.25977 15.643C-9.25977 15.6431 -9.25977 15.6432 -9.25977 15.6433C-9.25977 15.6434 -9.25977 15.6435 -9.25977 15.6437C-9.25977 15.6438 -9.25977 15.6439 -9.25977 15.644C-9.25977 15.6441 -9.25977 15.6442 -9.25977 15.6443C-9.25977 15.6444 -9.25977 15.6445 -9.25977 15.6447C-9.25977 15.6448 -9.25977 15.6449 -9.25977 15.645C-9.25977 15.6451 -9.25977 15.6452 -9.25977 15.6453C-9.25977 15.6454 -9.25977 15.6455 -9.25977 15.6457C-9.25977 15.6458 -9.25977 15.6459 -9.25977 15.646C-9.25977 15.6461 -9.25977 15.6462 -9.25977 15.6463C-9.25977 15.6464 -9.25977 15.6465 -9.25977 15.6467C-9.25977 15.6468 -9.25977 15.6469 -9.25977 15.647C-9.25977 15.6471 -9.25977 15.6472 -9.25977 15.6473C-9.25977 15.6474 -9.25977 15.6476 -9.25977 15.6477C-9.25977 15.6478 -9.25977 15.6479 -9.25977 15.648C-9.25977 15.6481 -9.25977 15.6482 -9.25977 15.6483C-9.25977 15.6484 -9.25977 15.6486 -9.25977 15.6487C-9.25977 15.6488 -9.25977 15.6489 -9.25977 15.649C-9.25977 15.6491 -9.25977 15.6492 -9.25977 15.6493C-9.25977 15.6494 -9.25977 15.6496 -9.25977 15.6497C-9.25977 15.6498 -9.25977 15.6499 -9.25977 15.65C-9.25977 15.6501 -9.25977 15.6502 -9.25977 15.6503C-9.25977 15.6505 -9.25977 15.6506 -9.25977 15.6507C-9.25977 15.6508 -9.25977 15.6509 -9.25977 15.651C-9.25977 15.6511 -9.25977 15.6512 -9.25977 15.6513C-9.25977 15.6515 -9.25977 15.6516 -9.25977 15.6517C-9.25977 15.6518 -9.25977 15.6519 -9.25977 15.652C-9.25977 15.6521 -9.25977 15.6522 -9.25977 15.6524C-9.25977 15.6525 -9.25977 15.6526 -9.25977 15.6527C-9.25977 15.6528 -9.25977 15.6529 -9.25977 15.653C-9.25977 15.6531 -9.25977 15.6532 -9.25977 15.6534C-9.25977 15.6535 -9.25977 15.6536 -9.25977 15.6537C-9.25977 15.6538 -9.25977 15.6539 -9.25977 15.654C-9.25977 15.6541 -9.25977 15.6543 -9.25977 15.6544C-9.25977 15.6545 -9.25977 15.6546 -9.25977 15.6547C-9.25977 15.6548 -9.25977 15.6549 -9.25977 15.655C-9.25977 15.6551 -9.25977 15.6553 -9.25977 15.6554C-9.25977 15.6555 -9.25977 15.6556 -9.25977 15.6557C-9.25977 15.6558 -9.25977 15.6559 -9.25977 15.656C-9.25977 15.6562 -9.25977 15.6563 -9.25977 15.6564C-9.25977 15.6565 -9.25977 15.6566 -9.25977 15.6567C-9.25977 15.6568 -9.25977 15.6569 -9.25977 15.657C-9.25977 15.6572 -9.25977 15.6573 -9.25977 15.6574C-9.25977 15.6575 -9.25977 15.6576 -9.25977 15.6577C-9.25977 15.6578 -9.25977 15.6579 -9.25977 15.6581C-9.25977 15.6582 -9.25977 15.6583 -9.25977 15.6584C-9.25977 15.6585 -9.25977 15.6586 -9.25977 15.6587C-9.25977 15.6588 -9.25977 15.659 -9.25977 15.6591C-9.25977 15.6592 -9.25977 15.6593 -9.25977 15.6594C-9.25977 15.6595 -9.25977 15.6596 -9.25977 15.6597C-9.25977 15.6598 -9.25977 15.66 -9.25977 15.6601C-9.25977 15.6602 -9.25977 15.6603 -9.25977 15.6604C-9.25977 15.6605 -9.25977 15.6606 -9.25977 15.6607C-9.25977 15.6609 -9.25977 15.661 -9.25977 15.6611C-9.25977 15.6612 -9.25977 15.6613 -9.25977 15.6614C-9.25977 15.6615 -9.25977 15.6616 -9.25977 15.6618C-9.25977 15.6619 -9.25977 15.662 -9.25977 15.6621C-9.25977 15.6622 -9.25977 15.6623 -9.25977 15.6624C-9.25977 15.6625 -9.25977 15.6627 -9.25977 15.6628C-9.25977 15.6629 -9.25977 15.663 -9.25977 15.6631C-9.25977 15.6632 -9.25977 15.6633 -9.25977 15.6634C-9.25977 15.6636 -9.25977 15.6637 -9.25977 15.6638C-9.25977 15.6639 -9.25977 15.664 -9.25977 15.6641C-9.25977 15.6642 -9.25977 15.6643 -9.25977 15.6645C-9.25977 15.6646 -9.25977 15.6647 -9.25977 15.6648C-9.25977 15.6649 -9.25977 15.665 -9.25977 15.6651C-9.25977 15.6652 -9.25977 15.6654 -9.25977 15.6655C-9.25977 15.6656 -9.25977 15.6657 -9.25977 15.6658C-9.25977 15.6659 -9.25977 15.666 -9.25977 15.6661C-9.25977 15.6663 -9.25977 15.6664 -9.25977 15.6665C-9.25977 15.6666 -9.25977 15.6667 -9.25977 15.6668C-9.25977 15.6669 -9.25977 15.667 -9.25977 15.6672C-9.25977 15.6673 -9.25977 15.6674 -9.25977 15.6675C-9.25977 15.6676 -9.25977 15.6677 -9.25977 15.6678C-9.25977 15.6679 -9.25977 15.6681 -9.25977 15.6682C-9.25977 15.6683 -9.25977 15.6684 -9.25977 15.6685C-9.25977 15.6686 -9.25977 15.6687 -9.25977 15.6688C-9.25977 15.669 -9.25977 15.6691 -9.25977 15.6692C-9.25977 15.6693 -9.25977 15.6694 -9.25977 15.6695C-9.25977 15.6696 -9.25977 15.6697 -9.25977 15.6699C-9.25977 15.67 -9.25977 15.6701 -9.25977 15.6702C-9.25977 15.6703 -9.25977 15.6704 -9.25977 15.6705C-9.25977 15.6706 -9.25977 15.6708 -9.25977 15.6709C-9.25977 15.671 -9.25977 15.6711 -9.25977 15.6712C-9.25977 15.6713 -9.25977 15.6714 -9.25977 15.6715C-9.25977 15.6717 -9.25977 15.6718 -9.25977 15.6719C-9.25977 15.672 -9.25977 15.6721 -9.25977 15.6722C-9.25977 15.6723 -9.25977 15.6724 -9.25977 15.6726C-9.25977 15.6727 -9.25977 15.6728 -9.25977 15.6729C-9.25977 15.673 -9.25977 15.6731 -9.25977 15.6732C-9.25977 15.6734 -9.25977 15.6735 -9.25977 15.6736C-9.25977 15.6737 -9.25977 15.6738 -9.25977 15.6739C-9.25977 15.674 -9.25977 15.6741 -9.25977 15.6743C-9.25977 15.6744 -9.25977 15.6745 -9.25977 15.6746C-9.25977 15.6747 -9.25977 15.6748 -9.25977 15.6749C-9.25977 15.675 -9.25977 15.6752 -9.25977 15.6753C-9.25977 15.6754 -9.25977 15.6755 -9.25977 15.6756C-9.25977 15.6757 -9.25977 15.6758 -9.25977 15.676C-9.25977 15.6761 -9.25977 15.6762 -9.25977 15.6763C-9.25977 15.6764 -9.25977 15.6765 -9.25977 15.6766C-9.25977 15.6767 -9.25977 15.6769 -9.25977 15.677C-9.25977 15.6771 -9.25977 15.6772 -9.25977 15.6773C-9.25977 15.6774 -9.25977 15.6775 -9.25977 15.6776C-9.25977 15.6778 -9.25977 15.6779 -9.25977 15.678C-9.25977 15.6781 -9.25977 15.6782 -9.25977 15.6783C-9.25977 15.6784 -9.25977 15.6786 -9.25977 15.6787C-9.25977 15.6788 -9.25977 15.6789 -9.25977 15.679C-9.25977 15.6791 -9.25977 15.6792 -9.25977 15.6793C-9.25977 15.6795 -9.25977 15.6796 -9.25977 15.6797C-9.25977 15.6798 -9.25977 15.6799 -9.25977 15.68C-9.25977 15.6801 -9.25977 15.6803 -9.25977 15.6804C-9.25977 15.6805 -9.25977 15.6806 -9.25977 15.6807C-9.25977 15.6808 -9.25977 15.6809 -9.25977 15.681C-9.25977 15.6812 -9.25977 15.6813 -9.25977 15.6814C-9.25977 15.6815 -9.25977 15.6816 -9.25977 15.6817C-9.25977 15.6818 -9.25977 15.682 -9.25977 15.6821C-9.25977 15.6822 -9.25977 15.6823 -9.25977 15.6824C-9.25977 15.6825 -9.25977 15.6826 -9.25977 15.6828C-9.25977 15.6829 -9.25977 15.683 -9.25977 15.6831C-9.25977 15.6832 -9.25977 15.6833 -9.25977 15.6834C-9.25977 15.6835 -9.25977 15.6837 -9.25977 15.6838C-9.25977 15.6839 -9.25977 15.684 -9.25977 15.6841C-9.25977 15.6842 -9.25977 15.6843 -9.25977 15.6845C-9.25977 15.6846 -9.25977 15.6847 -9.25977 15.6848C-9.25977 15.6849 -9.25977 15.685 -9.25977 15.6851C-9.25977 15.6853 -9.25977 15.6854 -9.25977 15.6855C-9.25977 15.6856 -9.25977 15.6857 -9.25977 15.6858C-9.25977 15.6859 -9.25977 15.6861 -9.25977 15.6862C-9.25977 15.6863 -9.25977 15.6864 -9.25977 15.6865C-9.25977 15.6866 -9.25977 15.6867 -9.25977 15.6868C-9.25977 15.687 -9.25977 15.6871 -9.25977 15.6872C-9.25977 15.6873 -9.25977 15.6874 -9.25977 15.6875C-9.25977 15.6876 -9.25977 15.6878 -9.25977 15.6879C-9.25977 15.688 -9.25977 15.6881 -9.25977 15.6882C-9.25977 15.6883 -9.25977 15.6884 -9.25977 15.6886C-9.25977 15.6887 -9.25977 15.6888 -9.25977 15.6889H15.7402ZM15.7402 15.5173C15.7402 16.4013 15.5661 17.2766 15.2279 18.0932L-7.86914 8.52615C-8.78723 10.7426 -9.25977 13.1182 -9.25977 15.5173L15.7402 15.5173ZM15.2279 18.0932C14.8896 18.9099 14.3938 19.6519 13.7687 20.277L-3.90898 2.59934C-5.60539 4.29575 -6.95105 6.30968 -7.86914 8.52615L15.2279 18.0932ZM13.7687 20.277C13.1437 20.902 12.4016 21.3979 11.5849 21.7361L2.01783 -1.36084C-0.198642 -0.442741 -2.21257 0.90293 -3.90898 2.59934L13.7687 20.277ZM11.5849 21.7361C10.7683 22.0744 9.89294 22.2485 9.00899 22.2485V-2.75146C6.6099 -2.75146 4.2343 -2.27893 2.01783 -1.36084L11.5849 21.7361ZM9.00899 22.2485C8.12503 22.2485 7.24972 22.0744 6.43304 21.7361L16.0001 -1.36084C13.7837 -2.27893 11.4081 -2.75146 9.00899 -2.75146V22.2485ZM6.43304 21.7361C5.61637 21.3979 4.87432 20.9021 4.24927 20.277L21.927 2.59934C20.2305 0.902924 18.2166 -0.442744 16.0001 -1.36084L6.43304 21.7361ZM4.24927 20.277C3.62421 19.6519 3.12839 18.9099 2.79012 18.0932L25.8871 8.52615C24.969 6.30969 23.6234 4.29576 21.927 2.59934L4.24927 20.277ZM2.79012 18.0932C2.45185 17.2766 2.27774 16.4013 2.27774 15.5173L27.2777 15.5173C27.2777 13.1182 26.8052 10.7426 25.8871 8.52615L2.79012 18.0932ZM2.27774 15.5173C2.27774 15.6731 2.27774 15.5331 2.27774 15.6889H27.2777C27.2777 15.6888 27.2777 15.6887 27.2777 15.6886C27.2777 15.6884 27.2777 15.6883 27.2777 15.6882C27.2777 15.6881 27.2777 15.688 27.2777 15.6879C27.2777 15.6878 27.2777 15.6876 27.2777 15.6875C27.2777 15.6874 27.2777 15.6873 27.2777 15.6872C27.2777 15.6871 27.2777 15.687 27.2777 15.6868C27.2777 15.6867 27.2777 15.6866 27.2777 15.6865C27.2777 15.6864 27.2777 15.6863 27.2777 15.6862C27.2777 15.6861 27.2777 15.6859 27.2777 15.6858C27.2777 15.6857 27.2777 15.6856 27.2777 15.6855C27.2777 15.6854 27.2777 15.6853 27.2777 15.6851C27.2777 15.685 27.2777 15.6849 27.2777 15.6848C27.2777 15.6847 27.2777 15.6846 27.2777 15.6845C27.2777 15.6843 27.2777 15.6842 27.2777 15.6841C27.2777 15.684 27.2777 15.6839 27.2777 15.6838C27.2777 15.6837 27.2777 15.6835 27.2777 15.6834C27.2777 15.6833 27.2777 15.6832 27.2777 15.6831C27.2777 15.683 27.2777 15.6829 27.2777 15.6828C27.2777 15.6826 27.2777 15.6825 27.2777 15.6824C27.2777 15.6823 27.2777 15.6822 27.2777 15.6821C27.2777 15.682 27.2777 15.6818 27.2777 15.6817C27.2777 15.6816 27.2777 15.6815 27.2777 15.6814C27.2777 15.6813 27.2777 15.6812 27.2777 15.681C27.2777 15.6809 27.2777 15.6808 27.2777 15.6807C27.2777 15.6806 27.2777 15.6805 27.2777 15.6804C27.2777 15.6803 27.2777 15.6801 27.2777 15.68C27.2777 15.6799 27.2777 15.6798 27.2777 15.6797C27.2777 15.6796 27.2777 15.6795 27.2777 15.6793C27.2777 15.6792 27.2777 15.6791 27.2777 15.679C27.2777 15.6789 27.2777 15.6788 27.2777 15.6787C27.2777 15.6786 27.2777 15.6784 27.2777 15.6783C27.2777 15.6782 27.2777 15.6781 27.2777 15.678C27.2777 15.6779 27.2777 15.6778 27.2777 15.6776C27.2777 15.6775 27.2777 15.6774 27.2777 15.6773C27.2777 15.6772 27.2777 15.6771 27.2777 15.677C27.2777 15.6769 27.2777 15.6767 27.2777 15.6766C27.2777 15.6765 27.2777 15.6764 27.2777 15.6763C27.2777 15.6762 27.2777 15.6761 27.2777 15.676C27.2777 15.6758 27.2777 15.6757 27.2777 15.6756C27.2777 15.6755 27.2777 15.6754 27.2777 15.6753C27.2777 15.6752 27.2777 15.675 27.2777 15.6749C27.2777 15.6748 27.2777 15.6747 27.2777 15.6746C27.2777 15.6745 27.2777 15.6744 27.2777 15.6743C27.2777 15.6741 27.2777 15.674 27.2777 15.6739C27.2777 15.6738 27.2777 15.6737 27.2777 15.6736C27.2777 15.6735 27.2777 15.6734 27.2777 15.6732C27.2777 15.6731 27.2777 15.673 27.2777 15.6729C27.2777 15.6728 27.2777 15.6727 27.2777 15.6726C27.2777 15.6724 27.2777 15.6723 27.2777 15.6722C27.2777 15.6721 27.2777 15.672 27.2777 15.6719C27.2777 15.6718 27.2777 15.6717 27.2777 15.6715C27.2777 15.6714 27.2777 15.6713 27.2777 15.6712C27.2777 15.6711 27.2777 15.671 27.2777 15.6709C27.2777 15.6708 27.2777 15.6706 27.2777 15.6705C27.2777 15.6704 27.2777 15.6703 27.2777 15.6702C27.2777 15.6701 27.2777 15.67 27.2777 15.6699C27.2777 15.6697 27.2777 15.6696 27.2777 15.6695C27.2777 15.6694 27.2777 15.6693 27.2777 15.6692C27.2777 15.6691 27.2777 15.669 27.2777 15.6688C27.2777 15.6687 27.2777 15.6686 27.2777 15.6685C27.2777 15.6684 27.2777 15.6683 27.2777 15.6682C27.2777 15.6681 27.2777 15.6679 27.2777 15.6678C27.2777 15.6677 27.2777 15.6676 27.2777 15.6675C27.2777 15.6674 27.2777 15.6673 27.2777 15.6672C27.2777 15.667 27.2777 15.6669 27.2777 15.6668C27.2777 15.6667 27.2777 15.6666 27.2777 15.6665C27.2777 15.6664 27.2777 15.6663 27.2777 15.6661C27.2777 15.666 27.2777 15.6659 27.2777 15.6658C27.2777 15.6657 27.2777 15.6656 27.2777 15.6655C27.2777 15.6654 27.2777 15.6652 27.2777 15.6651C27.2777 15.665 27.2777 15.6649 27.2777 15.6648C27.2777 15.6647 27.2777 15.6646 27.2777 15.6645C27.2777 15.6643 27.2777 15.6642 27.2777 15.6641C27.2777 15.664 27.2777 15.6639 27.2777 15.6638C27.2777 15.6637 27.2777 15.6636 27.2777 15.6634C27.2777 15.6633 27.2777 15.6632 27.2777 15.6631C27.2777 15.663 27.2777 15.6629 27.2777 15.6628C27.2777 15.6627 27.2777 15.6625 27.2777 15.6624C27.2777 15.6623 27.2777 15.6622 27.2777 15.6621C27.2777 15.662 27.2777 15.6619 27.2777 15.6618C27.2777 15.6616 27.2777 15.6615 27.2777 15.6614C27.2777 15.6613 27.2777 15.6612 27.2777 15.6611C27.2777 15.661 27.2777 15.6609 27.2777 15.6607C27.2777 15.6606 27.2777 15.6605 27.2777 15.6604C27.2777 15.6603 27.2777 15.6602 27.2777 15.6601C27.2777 15.66 27.2777 15.6598 27.2777 15.6597C27.2777 15.6596 27.2777 15.6595 27.2777 15.6594C27.2777 15.6593 27.2777 15.6592 27.2777 15.6591C27.2777 15.659 27.2777 15.6588 27.2777 15.6587C27.2777 15.6586 27.2777 15.6585 27.2777 15.6584C27.2777 15.6583 27.2777 15.6582 27.2777 15.6581C27.2777 15.6579 27.2777 15.6578 27.2777 15.6577C27.2777 15.6576 27.2777 15.6575 27.2777 15.6574C27.2777 15.6573 27.2777 15.6572 27.2777 15.657C27.2777 15.6569 27.2777 15.6568 27.2777 15.6567C27.2777 15.6566 27.2777 15.6565 27.2777 15.6564C27.2777 15.6563 27.2777 15.6562 27.2777 15.656C27.2777 15.6559 27.2777 15.6558 27.2777 15.6557C27.2777 15.6556 27.2777 15.6555 27.2777 15.6554C27.2777 15.6553 27.2777 15.6551 27.2777 15.655C27.2777 15.6549 27.2777 15.6548 27.2777 15.6547C27.2777 15.6546 27.2777 15.6545 27.2777 15.6544C27.2777 15.6543 27.2777 15.6541 27.2777 15.654C27.2777 15.6539 27.2777 15.6538 27.2777 15.6537C27.2777 15.6536 27.2777 15.6535 27.2777 15.6534C27.2777 15.6532 27.2777 15.6531 27.2777 15.653C27.2777 15.6529 27.2777 15.6528 27.2777 15.6527C27.2777 15.6526 27.2777 15.6525 27.2777 15.6524C27.2777 15.6522 27.2777 15.6521 27.2777 15.652C27.2777 15.6519 27.2777 15.6518 27.2777 15.6517C27.2777 15.6516 27.2777 15.6515 27.2777 15.6513C27.2777 15.6512 27.2777 15.6511 27.2777 15.651C27.2777 15.6509 27.2777 15.6508 27.2777 15.6507C27.2777 15.6506 27.2777 15.6505 27.2777 15.6503C27.2777 15.6502 27.2777 15.6501 27.2777 15.65C27.2777 15.6499 27.2777 15.6498 27.2777 15.6497C27.2777 15.6496 27.2777 15.6494 27.2777 15.6493C27.2777 15.6492 27.2777 15.6491 27.2777 15.649C27.2777 15.6489 27.2777 15.6488 27.2777 15.6487C27.2777 15.6486 27.2777 15.6484 27.2777 15.6483C27.2777 15.6482 27.2777 15.6481 27.2777 15.648C27.2777 15.6479 27.2777 15.6478 27.2777 15.6477C27.2777 15.6476 27.2777 15.6474 27.2777 15.6473C27.2777 15.6472 27.2777 15.6471 27.2777 15.647C27.2777 15.6469 27.2777 15.6468 27.2777 15.6467C27.2777 15.6465 27.2777 15.6464 27.2777 15.6463C27.2777 15.6462 27.2777 15.6461 27.2777 15.646C27.2777 15.6459 27.2777 15.6458 27.2777 15.6457C27.2777 15.6455 27.2777 15.6454 27.2777 15.6453C27.2777 15.6452 27.2777 15.6451 27.2777 15.645C27.2777 15.6449 27.2777 15.6448 27.2777 15.6447C27.2777 15.6445 27.2777 15.6444 27.2777 15.6443C27.2777 15.6442 27.2777 15.6441 27.2777 15.644C27.2777 15.6439 27.2777 15.6438 27.2777 15.6437C27.2777 15.6435 27.2777 15.6434 27.2777 15.6433C27.2777 15.6432 27.2777 15.6431 27.2777 15.643C27.2777 15.6429 27.2777 15.6428 27.2777 15.6427C27.2777 15.6425 27.2777 15.6424 27.2777 15.6423C27.2777 15.6422 27.2777 15.6421 27.2777 15.642C27.2777 15.6419 27.2777 15.6418 27.2777 15.6416C27.2777 15.6415 27.2777 15.6414 27.2777 15.6413C27.2777 15.6412 27.2777 15.6411 27.2777 15.641C27.2777 15.6409 27.2777 15.6408 27.2777 15.6406C27.2777 15.6405 27.2777 15.6404 27.2777 15.6403C27.2777 15.6402 27.2777 15.6401 27.2777 15.64C27.2777 15.6399 27.2777 15.6398 27.2777 15.6396C27.2777 15.6395 27.2777 15.6394 27.2777 15.6393C27.2777 15.6392 27.2777 15.6391 27.2777 15.639C27.2777 15.6389 27.2777 15.6388 27.2777 15.6386C27.2777 15.6385 27.2777 15.6384 27.2777 15.6383C27.2777 15.6382 27.2777 15.6381 27.2777 15.638C27.2777 15.6379 27.2777 15.6378 27.2777 15.6376C27.2777 15.6375 27.2777 15.6374 27.2777 15.6373C27.2777 15.6372 27.2777 15.6371 27.2777 15.637C27.2777 15.6369 27.2777 15.6368 27.2777 15.6366C27.2777 15.6365 27.2777 15.6364 27.2777 15.6363C27.2777 15.6362 27.2777 15.6361 27.2777 15.636C27.2777 15.6359 27.2777 15.6358 27.2777 15.6356C27.2777 15.6355 27.2777 15.6354 27.2777 15.6353C27.2777 15.6352 27.2777 15.6351 27.2777 15.635C27.2777 15.6349 27.2777 15.6348 27.2777 15.6346C27.2777 15.6345 27.2777 15.6344 27.2777 15.6343C27.2777 15.6342 27.2777 15.6341 27.2777 15.634C27.2777 15.6339 27.2777 15.6338 27.2777 15.6336C27.2777 15.6335 27.2777 15.6334 27.2777 15.6333C27.2777 15.6332 27.2777 15.6331 27.2777 15.633C27.2777 15.6329 27.2777 15.6328 27.2777 15.6326C27.2777 15.6325 27.2777 15.6324 27.2777 15.6323C27.2777 15.6322 27.2777 15.6321 27.2777 15.632C27.2777 15.6319 27.2777 15.6318 27.2777 15.6317C27.2777 15.6315 27.2777 15.6314 27.2777 15.6313C27.2777 15.6312 27.2777 15.6311 27.2777 15.631C27.2777 15.6309 27.2777 15.6308 27.2777 15.6307C27.2777 15.6305 27.2777 15.6304 27.2777 15.6303C27.2777 15.6302 27.2777 15.6301 27.2777 15.63C27.2777 15.6299 27.2777 15.6298 27.2777 15.6297C27.2777 15.6295 27.2777 15.6294 27.2777 15.6293C27.2777 15.6292 27.2777 15.6291 27.2777 15.629C27.2777 15.6289 27.2777 15.6288 27.2777 15.6287C27.2777 15.6285 27.2777 15.6284 27.2777 15.6283C27.2777 15.6282 27.2777 15.6281 27.2777 15.628C27.2777 15.6279 27.2777 15.6278 27.2777 15.6277C27.2777 15.6275 27.2777 15.6274 27.2777 15.6273C27.2777 15.6272 27.2777 15.6271 27.2777 15.627C27.2777 15.6269 27.2777 15.6268 27.2777 15.6267C27.2777 15.6266 27.2777 15.6264 27.2777 15.6263C27.2777 15.6262 27.2777 15.6261 27.2777 15.626C27.2777 15.6259 27.2777 15.6258 27.2777 15.6257C27.2777 15.6256 27.2777 15.6254 27.2777 15.6253C27.2777 15.6252 27.2777 15.6251 27.2777 15.625C27.2777 15.6249 27.2777 15.6248 27.2777 15.6247C27.2777 15.6246 27.2777 15.6244 27.2777 15.6243C27.2777 15.6242 27.2777 15.6241 27.2777 15.624C27.2777 15.6239 27.2777 15.6238 27.2777 15.6237C27.2777 15.6236 27.2777 15.6234 27.2777 15.6233C27.2777 15.6232 27.2777 15.6231 27.2777 15.623C27.2777 15.6229 27.2777 15.6228 27.2777 15.6227C27.2777 15.6226 27.2777 15.6225 27.2777 15.6223C27.2777 15.6222 27.2777 15.6221 27.2777 15.622C27.2777 15.6219 27.2777 15.6218 27.2777 15.6217C27.2777 15.6216 27.2777 15.6215 27.2777 15.6213C27.2777 15.6212 27.2777 15.6211 27.2777 15.621C27.2777 15.6209 27.2777 15.6208 27.2777 15.6207C27.2777 15.6206 27.2777 15.6205 27.2777 15.6203C27.2777 15.6202 27.2777 15.6201 27.2777 15.62C27.2777 15.6199 27.2777 15.6198 27.2777 15.6197C27.2777 15.6196 27.2777 15.6195 27.2777 15.6194C27.2777 15.6192 27.2777 15.6191 27.2777 15.619C27.2777 15.6189 27.2777 15.6188 27.2777 15.6187C27.2777 15.6186 27.2777 15.6185 27.2777 15.6184C27.2777 15.6182 27.2777 15.6181 27.2777 15.618C27.2777 15.6179 27.2777 15.6178 27.2777 15.6177C27.2777 15.6176 27.2777 15.6175 27.2777 15.6174C27.2777 15.6173 27.2777 15.6171 27.2777 15.617C27.2777 15.6169 27.2777 15.6168 27.2777 15.6167C27.2777 15.6166 27.2777 15.6165 27.2777 15.6164C27.2777 15.6163 27.2777 15.6161 27.2777 15.616C27.2777 15.6159 27.2777 15.6158 27.2777 15.6157C27.2777 15.6156 27.2777 15.6155 27.2777 15.6154C27.2777 15.6153 27.2777 15.6151 27.2777 15.615C27.2777 15.6149 27.2777 15.6148 27.2777 15.6147C27.2777 15.6146 27.2777 15.6145 27.2777 15.6144C27.2777 15.6143 27.2777 15.6142 27.2777 15.614C27.2777 15.6139 27.2777 15.6138 27.2777 15.6137C27.2777 15.6136 27.2777 15.6135 27.2777 15.6134C27.2777 15.6133 27.2777 15.6132 27.2777 15.613C27.2777 15.6129 27.2777 15.6128 27.2777 15.6127C27.2777 15.6126 27.2777 15.6125 27.2777 15.6124C27.2777 15.6123 27.2777 15.6122 27.2777 15.6121C27.2777 15.6119 27.2777 15.6118 27.2777 15.6117C27.2777 15.6116 27.2777 15.6115 27.2777 15.6114C27.2777 15.6113 27.2777 15.6112 27.2777 15.6111C27.2777 15.6109 27.2777 15.6108 27.2777 15.6107C27.2777 15.6106 27.2777 15.6105 27.2777 15.6104C27.2777 15.6103 27.2777 15.6102 27.2777 15.6101C27.2777 15.61 27.2777 15.6098 27.2777 15.6097C27.2777 15.6096 27.2777 15.6095 27.2777 15.6094C27.2777 15.6093 27.2777 15.6092 27.2777 15.6091C27.2777 15.609 27.2777 15.6088 27.2777 15.6087C27.2777 15.6086 27.2777 15.6085 27.2777 15.6084C27.2777 15.6083 27.2777 15.6082 27.2777 15.6081C27.2777 15.608 27.2777 15.6079 27.2777 15.6077C27.2777 15.6076 27.2777 15.6075 27.2777 15.6074C27.2777 15.6073 27.2777 15.6072 27.2777 15.6071C27.2777 15.607 27.2777 15.6069 27.2777 15.6067C27.2777 15.6066 27.2777 15.6065 27.2777 15.6064C27.2777 15.6063 27.2777 15.6062 27.2777 15.6061C27.2777 15.606 27.2777 15.6059 27.2777 15.6058C27.2777 15.6056 27.2777 15.6055 27.2777 15.6054C27.2777 15.6053 27.2777 15.6052 27.2777 15.6051C27.2777 15.605 27.2777 15.6049 27.2777 15.6048C27.2777 15.6046 27.2777 15.6045 27.2777 15.6044C27.2777 15.6043 27.2777 15.6042 27.2777 15.6041C27.2777 15.604 27.2777 15.6039 27.2777 15.6038C27.2777 15.6037 27.2777 15.6035 27.2777 15.6034C27.2777 15.6033 27.2777 15.6032 27.2777 15.6031C27.2777 15.603 27.2777 15.6029 27.2777 15.6028C27.2777 15.6027 27.2777 15.6025 27.2777 15.6024C27.2777 15.6023 27.2777 15.6022 27.2777 15.6021C27.2777 15.602 27.2777 15.6019 27.2777 15.6018C27.2777 15.6017 27.2777 15.6016 27.2777 15.6014C27.2777 15.6013 27.2777 15.6012 27.2777 15.6011C27.2777 15.601 27.2777 15.6009 27.2777 15.6008C27.2777 15.6007 27.2777 15.6006 27.2777 15.6004C27.2777 15.6003 27.2777 15.6002 27.2777 15.6001C27.2777 15.6 27.2777 15.5999 27.2777 15.5998C27.2777 15.5997 27.2777 15.5996 27.2777 15.5995C27.2777 15.5993 27.2777 15.5992 27.2777 15.5991C27.2777 15.599 27.2777 15.5989 27.2777 15.5988C27.2777 15.5987 27.2777 15.5986 27.2777 15.5985C27.2777 15.5983 27.2777 15.5982 27.2777 15.5981C27.2777 15.598 27.2777 15.5979 27.2777 15.5978C27.2777 15.5977 27.2777 15.5976 27.2777 15.5975C27.2777 15.5974 27.2777 15.5972 27.2777 15.5971C27.2777 15.597 27.2777 15.5969 27.2777 15.5968C27.2777 15.5967 27.2777 15.5966 27.2777 15.5965C27.2777 15.5964 27.2777 15.5962 27.2777 15.5961C27.2777 15.596 27.2777 15.5959 27.2777 15.5958C27.2777 15.5957 27.2777 15.5956 27.2777 15.5955C27.2777 15.5954 27.2777 15.5953 27.2777 15.5951C27.2777 15.595 27.2777 15.5949 27.2777 15.5948C27.2777 15.5947 27.2777 15.5946 27.2777 15.5945C27.2777 15.5944 27.2777 15.5943 27.2777 15.5941C27.2777 15.594 27.2777 15.5939 27.2777 15.5938C27.2777 15.5937 27.2777 15.5936 27.2777 15.5935C27.2777 15.5934 27.2777 15.5933 27.2777 15.5931C27.2777 15.593 27.2777 15.5929 27.2777 15.5928C27.2777 15.5927 27.2777 15.5926 27.2777 15.5925C27.2777 15.5924 27.2777 15.5923 27.2777 15.5922C27.2777 15.592 27.2777 15.5919 27.2777 15.5918C27.2777 15.5917 27.2777 15.5916 27.2777 15.5915C27.2777 15.5914 27.2777 15.5913 27.2777 15.5912C27.2777 15.591 27.2777 15.5909 27.2777 15.5908C27.2777 15.5907 27.2777 15.5906 27.2777 15.5905C27.2777 15.5904 27.2777 15.5903 27.2777 15.5902C27.2777 15.5901 27.2777 15.5899 27.2777 15.5898C27.2777 15.5897 27.2777 15.5896 27.2777 15.5895C27.2777 15.5894 27.2777 15.5893 27.2777 15.5892C27.2777 15.5891 27.2777 15.5889 27.2777 15.5888C27.2777 15.5887 27.2777 15.5886 27.2777 15.5885C27.2777 15.5884 27.2777 15.5883 27.2777 15.5882C27.2777 15.5881 27.2777 15.588 27.2777 15.5878C27.2777 15.5877 27.2777 15.5876 27.2777 15.5875C27.2777 15.5874 27.2777 15.5873 27.2777 15.5872C27.2777 15.5871 27.2777 15.587 27.2777 15.5868C27.2777 15.5867 27.2777 15.5866 27.2777 15.5865C27.2777 15.5864 27.2777 15.5863 27.2777 15.5862C27.2777 15.5861 27.2777 15.586 27.2777 15.5858C27.2777 15.5857 27.2777 15.5856 27.2777 15.5855C27.2777 15.5854 27.2777 15.5853 27.2777 15.5852C27.2777 15.5851 27.2777 15.585 27.2777 15.5849C27.2777 15.5847 27.2777 15.5846 27.2777 15.5845C27.2777 15.5844 27.2777 15.5843 27.2777 15.5842C27.2777 15.5841 27.2777 15.584 27.2777 15.5839C27.2777 15.5837 27.2777 15.5836 27.2777 15.5835C27.2777 15.5834 27.2777 15.5833 27.2777 15.5832C27.2777 15.5831 27.2777 15.583 27.2777 15.5829C27.2777 15.5827 27.2777 15.5826 27.2777 15.5825C27.2777 15.5824 27.2777 15.5823 27.2777 15.5822C27.2777 15.5821 27.2777 15.582 27.2777 15.5819C27.2777 15.5818 27.2777 15.5816 27.2777 15.5815C27.2777 15.5814 27.2777 15.5813 27.2777 15.5812C27.2777 15.5811 27.2777 15.581 27.2777 15.5809C27.2777 15.5808 27.2777 15.5806 27.2777 15.5805C27.2777 15.5804 27.2777 15.5803 27.2777 15.5802C27.2777 15.5801 27.2777 15.58 27.2777 15.5799C27.2777 15.5798 27.2777 15.5796 27.2777 15.5795C27.2777 15.5794 27.2777 15.5793 27.2777 15.5792C27.2777 15.5791 27.2777 15.579 27.2777 15.5789C27.2777 15.5788 27.2777 15.5786 27.2777 15.5785C27.2777 15.5784 27.2777 15.5783 27.2777 15.5782C27.2777 15.5781 27.2777 15.578 27.2777 15.5779C27.2777 15.5778 27.2777 15.5777 27.2777 15.5775C27.2777 15.5774 27.2777 15.5773 27.2777 15.5772C27.2777 15.5771 27.2777 15.577 27.2777 15.5769C27.2777 15.5768 27.2777 15.5767 27.2777 15.5765C27.2777 15.5764 27.2777 15.5763 27.2777 15.5762C27.2777 15.5761 27.2777 15.576 27.2777 15.5759C27.2777 15.5758 27.2777 15.5757 27.2777 15.5755C27.2777 15.5754 27.2777 15.5753 27.2777 15.5752C27.2777 15.5751 27.2777 15.575 27.2777 15.5749C27.2777 15.5748 27.2777 15.5747 27.2777 15.5745C27.2777 15.5744 27.2777 15.5743 27.2777 15.5742C27.2777 15.5741 27.2777 15.574 27.2777 15.5739C27.2777 15.5738 27.2777 15.5737 27.2777 15.5735C27.2777 15.5734 27.2777 15.5733 27.2777 15.5732C27.2777 15.5731 27.2777 15.573 27.2777 15.5729C27.2777 15.5728 27.2777 15.5727 27.2777 15.5725C27.2777 15.5724 27.2777 15.5723 27.2777 15.5722C27.2777 15.5721 27.2777 15.572 27.2777 15.5719C27.2777 15.5718 27.2777 15.5717 27.2777 15.5716C27.2777 15.5714 27.2777 15.5713 27.2777 15.5712C27.2777 15.5711 27.2777 15.571 27.2777 15.5709C27.2777 15.5708 27.2777 15.5707 27.2777 15.5706C27.2777 15.5704 27.2777 15.5703 27.2777 15.5702C27.2777 15.5701 27.2777 15.57 27.2777 15.5699C27.2777 15.5698 27.2777 15.5697 27.2777 15.5696C27.2777 15.5694 27.2777 15.5693 27.2777 15.5692C27.2777 15.5691 27.2777 15.569 27.2777 15.5689C27.2777 15.5688 27.2777 15.5687 27.2777 15.5686C27.2777 15.5684 27.2777 15.5683 27.2777 15.5682C27.2777 15.5681 27.2777 15.568 27.2777 15.5679C27.2777 15.5678 27.2777 15.5677 27.2777 15.5676C27.2777 15.5674 27.2777 15.5673 27.2777 15.5672C27.2777 15.5671 27.2777 15.567 27.2777 15.5669C27.2777 15.5668 27.2777 15.5667 27.2777 15.5666C27.2777 15.5664 27.2777 15.5663 27.2777 15.5662C27.2777 15.5661 27.2777 15.566 27.2777 15.5659C27.2777 15.5658 27.2777 15.5657 27.2777 15.5655C27.2777 15.5654 27.2777 15.5653 27.2777 15.5652C27.2777 15.5651 27.2777 15.565 27.2777 15.5649C27.2777 15.5648 27.2777 15.5647 27.2777 15.5645C27.2777 15.5644 27.2777 15.5643 27.2777 15.5642C27.2777 15.5641 27.2777 15.564 27.2777 15.5639C27.2777 15.5638 27.2777 15.5637 27.2777 15.5635C27.2777 15.5634 27.2777 15.5633 27.2777 15.5632C27.2777 15.5631 27.2777 15.563 27.2777 15.5629C27.2777 15.5628 27.2777 15.5627 27.2777 15.5625C27.2777 15.5624 27.2777 15.5623 27.2777 15.5622C27.2777 15.5621 27.2777 15.562 27.2777 15.5619C27.2777 15.5618 27.2777 15.5617 27.2777 15.5615C27.2777 15.5614 27.2777 15.5613 27.2777 15.5612C27.2777 15.5611 27.2777 15.561 27.2777 15.5609C27.2777 15.5608 27.2777 15.5607 27.2777 15.5605C27.2777 15.5604 27.2777 15.5603 27.2777 15.5602C27.2777 15.5601 27.2777 15.56 27.2777 15.5599C27.2777 15.5598 27.2777 15.5596 27.2777 15.5595C27.2777 15.5594 27.2777 15.5593 27.2777 15.5592C27.2777 15.5591 27.2777 15.559 27.2777 15.5589C27.2777 15.5588 27.2777 15.5586 27.2777 15.5585C27.2777 15.5584 27.2777 15.5583 27.2777 15.5582C27.2777 15.5581 27.2777 15.558 27.2777 15.5579C27.2777 15.5578 27.2777 15.5576 27.2777 15.5575C27.2777 15.5574 27.2777 15.5573 27.2777 15.5572C27.2777 15.5571 27.2777 15.557 27.2777 15.5569C27.2777 15.5567 27.2777 15.5566 27.2777 15.5565C27.2777 15.5564 27.2777 15.5563 27.2777 15.5562C27.2777 15.5561 27.2777 15.556 27.2777 15.5559C27.2777 15.5557 27.2777 15.5556 27.2777 15.5555C27.2777 15.5554 27.2777 15.5553 27.2777 15.5552C27.2777 15.5551 27.2777 15.555 27.2777 15.5549C27.2777 15.5547 27.2777 15.5546 27.2777 15.5545C27.2777 15.5544 27.2777 15.5543 27.2777 15.5542C27.2777 15.5541 27.2777 15.554 27.2777 15.5538C27.2777 15.5537 27.2777 15.5536 27.2777 15.5535C27.2777 15.5534 27.2777 15.5533 27.2777 15.5532C27.2777 15.5531 27.2777 15.553 27.2777 15.5528C27.2777 15.5527 27.2777 15.5526 27.2777 15.5525C27.2777 15.5524 27.2777 15.5523 27.2777 15.5522C27.2777 15.5521 27.2777 15.5519 27.2777 15.5518C27.2777 15.5517 27.2777 15.5516 27.2777 15.5515C27.2777 15.5514 27.2777 15.5513 27.2777 15.5512C27.2777 15.5511 27.2777 15.5509 27.2777 15.5508C27.2777 15.5507 27.2777 15.5506 27.2777 15.5505C27.2777 15.5504 27.2777 15.5503 27.2777 15.5502C27.2777 15.55 27.2777 15.5499 27.2777 15.5498C27.2777 15.5497 27.2777 15.5496 27.2777 15.5495C27.2777 15.5494 27.2777 15.5493 27.2777 15.5491C27.2777 15.549 27.2777 15.5489 27.2777 15.5488C27.2777 15.5487 27.2777 15.5486 27.2777 15.5485C27.2777 15.5484 27.2777 15.5483 27.2777 15.5481C27.2777 15.548 27.2777 15.5479 27.2777 15.5478C27.2777 15.5477 27.2777 15.5476 27.2777 15.5475C27.2777 15.5474 27.2777 15.5472 27.2777 15.5471C27.2777 15.547 27.2777 15.5469 27.2777 15.5468C27.2777 15.5467 27.2777 15.5466 27.2777 15.5465C27.2777 15.5463 27.2777 15.5462 27.2777 15.5461C27.2777 15.546 27.2777 15.5459 27.2777 15.5458C27.2777 15.5457 27.2777 15.5456 27.2777 15.5455C27.2777 15.5453 27.2777 15.5452 27.2777 15.5451C27.2777 15.545 27.2777 15.5449 27.2777 15.5448C27.2777 15.5447 27.2777 15.5446 27.2777 15.5444C27.2777 15.5443 27.2777 15.5442 27.2777 15.5441C27.2777 15.544 27.2777 15.5439 27.2777 15.5438C27.2777 15.5437 27.2777 15.5435 27.2777 15.5434C27.2777 15.5433 27.2777 15.5432 27.2777 15.5431C27.2777 15.543 27.2777 15.5429 27.2777 15.5428C27.2777 15.5426 27.2777 15.5425 27.2777 15.5424C27.2777 15.5423 27.2777 15.5422 27.2777 15.5421C27.2777 15.542 27.2777 15.5419 27.2777 15.5417C27.2777 15.5416 27.2777 15.5415 27.2777 15.5414C27.2777 15.5413 27.2777 15.5412 27.2777 15.5411C27.2777 15.541 27.2777 15.5408 27.2777 15.5407C27.2777 15.5406 27.2777 15.5405 27.2777 15.5404C27.2777 15.5403 27.2777 15.5402 27.2777 15.5401C27.2777 15.5399 27.2777 15.5398 27.2777 15.5397C27.2777 15.5396 27.2777 15.5395 27.2777 15.5394C27.2777 15.5393 27.2777 15.5392 27.2777 15.539C27.2777 15.5389 27.2777 15.5388 27.2777 15.5387C27.2777 15.5386 27.2777 15.5385 27.2777 15.5384C27.2777 15.5383 27.2777 15.5381 27.2777 15.538C27.2777 15.5379 27.2777 15.5378 27.2777 15.5377C27.2777 15.5376 27.2777 15.5375 27.2777 15.5374C27.2777 15.5372 27.2777 15.5371 27.2777 15.537C27.2777 15.5369 27.2777 15.5368 27.2777 15.5367C27.2777 15.5366 27.2777 15.5365 27.2777 15.5363C27.2777 15.5362 27.2777 15.5361 27.2777 15.536C27.2777 15.5359 27.2777 15.5358 27.2777 15.5357C27.2777 15.5356 27.2777 15.5354 27.2777 15.5353C27.2777 15.5352 27.2777 15.5351 27.2777 15.535C27.2777 15.5349 27.2777 15.5348 27.2777 15.5347C27.2777 15.5345 27.2777 15.5344 27.2777 15.5343C27.2777 15.5342 27.2777 15.5341 27.2777 15.534C27.2777 15.5339 27.2777 15.5337 27.2777 15.5336C27.2777 15.5335 27.2777 15.5334 27.2777 15.5333C27.2777 15.5332 27.2777 15.5331 27.2777 15.533C27.2777 15.5328 27.2777 15.5327 27.2777 15.5326C27.2777 15.5325 27.2777 15.5324 27.2777 15.5323C27.2777 15.5322 27.2777 15.5321 27.2777 15.5319C27.2777 15.5318 27.2777 15.5317 27.2777 15.5316C27.2777 15.5315 27.2777 15.5314 27.2777 15.5313C27.2777 15.5312 27.2777 15.531 27.2777 15.5309C27.2777 15.5308 27.2777 15.5307 27.2777 15.5306C27.2777 15.5305 27.2777 15.5304 27.2777 15.5302C27.2777 15.5301 27.2777 15.53 27.2777 15.5299C27.2777 15.5298 27.2777 15.5297 27.2777 15.5296C27.2777 15.5295 27.2777 15.5293 27.2777 15.5292C27.2777 15.5291 27.2777 15.529 27.2777 15.5289C27.2777 15.5288 27.2777 15.5287 27.2777 15.5285C27.2777 15.5284 27.2777 15.5283 27.2777 15.5282C27.2777 15.5281 27.2777 15.528 27.2777 15.5279C27.2777 15.5278 27.2777 15.5276 27.2777 15.5275C27.2777 15.5274 27.2777 15.5273 27.2777 15.5272C27.2777 15.5271 27.2777 15.527 27.2777 15.5268C27.2777 15.5267 27.2777 15.5266 27.2777 15.5265C27.2777 15.5264 27.2777 15.5263 27.2777 15.5262C27.2777 15.5261 27.2777 15.5259 27.2777 15.5258C27.2777 15.5257 27.2777 15.5256 27.2777 15.5255C27.2777 15.5254 27.2777 15.5253 27.2777 15.5251C27.2777 15.525 27.2777 15.5249 27.2777 15.5248C27.2777 15.5247 27.2777 15.5246 27.2777 15.5245C27.2777 15.5244 27.2777 15.5242 27.2777 15.5241C27.2777 15.524 27.2777 15.5239 27.2777 15.5238C27.2777 15.5237 27.2777 15.5236 27.2777 15.5234C27.2777 15.5233 27.2777 15.5232 27.2777 15.5231C27.2777 15.523 27.2777 15.5229 27.2777 15.5228C27.2777 15.5226 27.2777 15.5225 27.2777 15.5224C27.2777 15.5223 27.2777 15.5222 27.2777 15.5221C27.2777 15.522 27.2777 15.5219 27.2777 15.5217C27.2777 15.5216 27.2777 15.5215 27.2777 15.5214C27.2777 15.5213 27.2777 15.5212 27.2777 15.5211C27.2777 15.5209 27.2777 15.5208 27.2777 15.5207C27.2777 15.5206 27.2777 15.5205 27.2777 15.5204C27.2777 15.5203 27.2777 15.5201 27.2777 15.52C27.2777 15.5199 27.2777 15.5198 27.2777 15.5197C27.2777 15.5196 27.2777 15.5195 27.2777 15.5193C27.2777 15.5192 27.2777 15.5191 27.2777 15.519C27.2777 15.5189 27.2777 15.5188 27.2777 15.5187C27.2777 15.5186 27.2777 15.5184 27.2777 15.5183C27.2777 15.5182 27.2777 15.5181 27.2777 15.518C27.2777 15.5179 27.2777 15.5178 27.2777 15.5176C27.2777 15.5175 27.2777 15.5174 27.2777 15.5173H2.27774ZM2.32429 14.6111C2.46453 12.9907 2.93421 11.4161 3.70439 9.98384L25.7228 21.8239C26.5646 20.2586 27.0779 18.5377 27.2312 16.7667L2.32429 14.6111ZM3.70439 9.98384C4.4746 8.55152 5.52922 7.29149 6.80367 6.28102L22.3356 25.8708C23.7285 24.7665 24.8811 23.3893 25.7228 21.8239L3.70439 9.98384ZM6.84921 6.24509C7.4637 5.76251 8.22239 5.50016 9.00373 5.50006L9.00694 30.5001C13.8241 30.4994 18.5015 28.882 22.29 25.9067L6.84921 6.24509ZM-3.05922 25.453C0.439478 28.0201 4.66584 29.4044 9.00534 29.4044V4.40435C9.9855 4.40435 10.9401 4.717 11.7303 5.29685L-3.05922 25.453ZM9.00534 29.4044C13.3448 29.4044 17.5712 28.0201 21.0699 25.453L6.28032 5.29685C7.07057 4.717 8.02518 4.40435 9.00534 4.40435V29.4044ZM26.1653 14.8809C25.99 10.4472 24.1053 6.25345 20.9064 3.17853L3.58156 21.2021C2.12368 19.8008 1.26479 17.8895 1.18487 15.8689L26.1653 14.8809ZM20.9064 3.17853C17.7075 0.103605 13.4425 -1.61383 9.00534 -1.61383V23.3862C6.98313 23.3862 5.03943 22.6035 3.58156 21.2021L20.9064 3.17853ZM9.00534 -1.61383C4.56816 -1.61383 0.303205 0.103604 -2.89574 3.17853L14.4291 21.2021C12.9712 22.6035 11.0275 23.3862 9.00534 23.3862V-1.61383ZM-2.89574 3.17853C-6.09468 6.25345 -7.97931 10.4472 -8.15467 14.8809L16.8258 15.8689C16.7459 17.8895 15.887 19.8008 14.4291 21.2021L-2.89574 3.17853Z" fill="#0D1B2A" mask="url(#path-3-inside-2_413_62)"/>
<mask id="path-5-inside-3_413_62" fill="white">
<path d="M9.00468 18C6.87619 18.0011 4.81619 17.2478 3.19053 15.8739C1.56487 14.4999 0.478773 12.5943 0.125119 10.4954C-0.228536 8.39647 0.173146 6.24015 1.25883 4.40936C2.34451 2.57858 4.04392 1.19183 6.05524 0.495391C8.06658 -0.201043 10.2596 -0.162084 12.245 0.605349C14.2303 1.37278 15.8794 2.81902 16.8993 4.68721C17.9193 6.5554 18.2442 8.72463 17.8162 10.8096C17.3882 12.8947 16.2351 14.7605 14.5617 16.0759C12.9766 17.3206 11.0201 17.9981 9.00468 18ZM9.00468 1.10264C7.36224 1.10271 5.7607 1.61487 4.42299 2.56782C3.08527 3.52076 2.07795 4.86707 1.54125 6.41934C1.00454 7.97161 0.965159 9.65259 1.42858 11.2283C1.89201 12.804 2.83517 14.196 4.12679 15.2105C5.29207 16.1251 6.69097 16.6936 8.16384 16.8512C9.63671 17.0089 11.1242 16.7493 12.4567 16.1021C13.7891 15.4549 14.9127 14.4462 15.6994 13.1911C16.4861 11.9359 16.9041 10.4849 16.9057 9.00365C16.9028 6.90906 16.0694 4.90109 14.5883 3.41999C13.1072 1.93889 11.0993 1.10553 9.00468 1.10264Z"/>
</mask>
<path d="M9.00468 18C6.87619 18.0011 4.81619 17.2478 3.19053 15.8739C1.56487 14.4999 0.478773 12.5943 0.125119 10.4954C-0.228536 8.39647 0.173146 6.24015 1.25883 4.40936C2.34451 2.57858 4.04392 1.19183 6.05524 0.495391C8.06658 -0.201043 10.2596 -0.162084 12.245 0.605349C14.2303 1.37278 15.8794 2.81902 16.8993 4.68721C17.9193 6.5554 18.2442 8.72463 17.8162 10.8096C17.3882 12.8947 16.2351 14.7605 14.5617 16.0759C12.9766 17.3206 11.0201 17.9981 9.00468 18ZM9.00468 1.10264C7.36224 1.10271 5.7607 1.61487 4.42299 2.56782C3.08527 3.52076 2.07795 4.86707 1.54125 6.41934C1.00454 7.97161 0.965159 9.65259 1.42858 11.2283C1.89201 12.804 2.83517 14.196 4.12679 15.2105C5.29207 16.1251 6.69097 16.6936 8.16384 16.8512C9.63671 17.0089 11.1242 16.7493 12.4567 16.1021C13.7891 15.4549 14.9127 14.4462 15.6994 13.1911C16.4861 11.9359 16.9041 10.4849 16.9057 9.00365C16.9028 6.90906 16.0694 4.90109 14.5883 3.41999C13.1072 1.93889 11.0993 1.10553 9.00468 1.10264Z" fill="#0D1B2A"/>
<path d="M9.00468 18L9.01117 30.5L9.01642 30.5L9.00468 18ZM14.5617 16.0759L22.2821 25.9067L22.2862 25.9034L14.5617 16.0759ZM9.00468 1.10264L9.02197 -11.3974L9.01303 -11.3974L9.00409 -11.3974L9.00468 1.10264ZM4.12679 15.2105L-3.59456 25.0406L-3.59041 25.0439L4.12679 15.2105ZM16.9057 9.00365L29.4057 9.01723L29.4057 9.00179L29.4057 8.98636L16.9057 9.00365ZM8.99818 5.5C9.82594 5.49957 10.6271 5.79253 11.2593 6.32684L-4.8782 25.4209C-0.994677 28.7031 3.92643 30.5026 9.01117 30.5L8.99818 5.5ZM11.2593 6.32684C11.8915 6.86115 12.3138 7.60223 12.4514 8.41847L-12.2011 12.5723C-11.3563 17.5863 -8.76172 22.1387 -4.8782 25.4209L11.2593 6.32684ZM12.4514 8.41847C12.5889 9.2347 12.4327 10.0733 12.0105 10.7852L-9.49283 -1.96652C-12.0864 2.40702 -13.046 7.55823 -12.2011 12.5723L12.4514 8.41847ZM12.0105 10.7852C11.5883 11.4972 10.9274 12.0365 10.1452 12.3073L1.96529 -11.3166C-2.83956 -9.65286 -6.89926 -6.34006 -9.49283 -1.96652L12.0105 10.7852ZM10.1452 12.3073C9.36301 12.5782 8.51013 12.563 7.73806 12.2646L16.7519 -11.0539C12.0091 -12.8872 6.77014 -12.9803 1.96529 -11.3166L10.1452 12.3073ZM7.73806 12.2646C6.96597 11.9661 6.32466 11.4037 5.92801 10.6772L27.8707 -1.30278C25.4341 -5.76567 21.4946 -9.22057 16.7519 -11.0539L7.73806 12.2646ZM5.92801 10.6772C5.53136 9.95067 5.40503 9.10709 5.57147 8.29625L30.0609 13.323C31.0833 8.34216 30.3073 3.16012 27.8707 -1.30278L5.92801 10.6772ZM5.57147 8.29625C5.7379 7.48542 6.18633 6.7598 6.83711 6.24828L22.2862 25.9034C26.2839 22.7613 29.0385 18.3039 30.0609 13.323L5.57147 8.29625ZM6.84124 6.24504C7.45497 5.76306 8.21256 5.50074 8.99293 5.5L9.01642 30.5C13.8276 30.4955 18.4983 28.8782 22.2821 25.9067L6.84124 6.24504ZM9.00409 -11.3974C4.76199 -11.3972 0.625508 -10.0744 -2.82955 -7.61308L11.6755 12.7487C10.8959 13.3041 9.9625 13.6026 9.00526 13.6026L9.00409 -11.3974ZM-2.82955 -7.61308C-6.28462 -5.1518 -8.88633 -1.67454 -10.2725 2.33467L13.355 10.504C13.0422 11.4087 12.4552 12.1933 11.6755 12.7487L-2.82955 -7.61308ZM-10.2725 2.33467C-11.6587 6.34387 -11.7605 10.6855 -10.5635 14.7552L13.4207 7.70134C13.6908 8.61966 13.6678 9.59935 13.355 10.504L-10.2725 2.33467ZM-10.5635 14.7552C-9.36659 18.825 -6.93057 22.4203 -3.59456 25.0406L11.8482 5.38046C12.6009 5.97174 13.1506 6.78301 13.4207 7.70134L-10.5635 14.7552ZM-3.59041 25.0439C-0.58157 27.4052 3.03048 28.8732 6.83355 29.2802L9.49412 4.4222C10.3514 4.51396 11.1657 4.84488 11.844 5.3772L-3.59041 25.0439ZM6.83355 29.2802C10.6366 29.6873 14.4775 29.017 17.918 27.3459L6.99535 4.85825C7.77093 4.48154 8.63679 4.33044 9.49412 4.4222L6.83355 29.2802ZM17.918 27.3459C21.3584 25.6749 24.2598 23.0703 26.291 19.8295L5.10782 6.55269C5.56572 5.8221 6.21977 5.23496 6.99535 4.85825L17.918 27.3459ZM26.291 19.8295C28.3222 16.5886 29.4015 12.842 29.4057 9.01723L4.40568 8.99007C4.40662 8.12786 4.64992 7.28327 5.10782 6.55269L26.291 19.8295ZM29.4057 8.98636C29.3982 3.58257 27.2482 -1.59776 23.4272 -5.41884L5.74948 12.2588C4.89061 11.3999 4.40737 10.2356 4.40569 9.02094L29.4057 8.98636ZM23.4272 -5.41884C19.6061 -9.23991 14.4258 -11.3899 9.02197 -11.3974L8.98738 13.6026C7.77275 13.6009 6.60835 13.1177 5.74948 12.2588L23.4272 -5.41884Z" fill="#0D1B2A" mask="url(#path-5-inside-3_413_62)"/>
</svg>
