<svg width="18" height="18" viewBox="0 0 18 18" fill="none" xmlns="http://www.w3.org/2000/svg">
<path d="M15.1875 0H2.8125C2.06658 0 1.35121 0.296316 0.823762 0.823762C0.296316 1.35121 0 2.06658 0 2.8125V11.8125C0 12.5584 0.296316 13.2738 0.823762 13.8012C1.35121 14.3287 2.06658 14.625 2.8125 14.625H3.375V17.4375C3.37502 17.5488 3.40806 17.6576 3.46994 17.7501C3.53182 17.8426 3.61976 17.9147 3.72263 17.9572C3.79066 17.9858 3.86373 18.0003 3.9375 18C4.01142 18.0001 4.08464 17.9857 4.15297 17.9575C4.22131 17.9293 4.28342 17.8879 4.33575 17.8357L7.54537 14.625H15.1875C15.9334 14.625 16.6488 14.3287 17.1762 13.8012C17.7037 13.2738 18 12.5584 18 11.8125V2.8125C18 2.06658 17.7037 1.35121 17.1762 0.823762C16.6488 0.296316 15.9334 0 15.1875 0ZM16.875 11.8125C16.875 12.26 16.6972 12.6893 16.3807 13.0057C16.0643 13.3222 15.6351 13.5 15.1875 13.5H7.3125C7.23858 13.4999 7.16536 13.5143 7.09703 13.5425C7.02869 13.5707 6.96658 13.612 6.91425 13.6642L4.5 16.0796V14.0625C4.5 13.9133 4.44074 13.7702 4.33525 13.6647C4.22976 13.5593 4.08668 13.5 3.9375 13.5H2.8125C2.36495 13.5 1.93573 13.3222 1.61926 13.0057C1.30279 12.6893 1.125 12.26 1.125 11.8125V2.8125C1.125 2.36495 1.30279 1.93572 1.61926 1.61926C1.93573 1.30279 2.36495 1.125 2.8125 1.125H15.1875C15.6351 1.125 16.0643 1.30279 16.3807 1.61926C16.6972 1.93572 16.875 2.36495 16.875 2.8125V11.8125ZM12.9375 7.3125C12.9375 7.46168 12.8782 7.60476 12.7727 7.71025C12.6673 7.81573 12.5242 7.875 12.375 7.875H9.5625V10.6875C9.5625 10.8367 9.50324 10.9798 9.39775 11.0852C9.29226 11.1907 9.14918 11.25 9 11.25C8.85082 11.25 8.70774 11.1907 8.60225 11.0852C8.49676 10.9798 8.4375 10.8367 8.4375 10.6875V7.875H5.625C5.47582 7.875 5.33274 7.81573 5.22725 7.71025C5.12176 7.60476 5.0625 7.46168 5.0625 7.3125C5.0625 7.16331 5.12176 7.02024 5.22725 6.91475C5.33274 6.80926 5.47582 6.75 5.625 6.75H8.4375V3.9375C8.4375 3.78831 8.49676 3.64524 8.60225 3.53975C8.70774 3.43426 8.85082 3.375 9 3.375C9.14918 3.375 9.29226 3.43426 9.39775 3.53975C9.50324 3.64524 9.5625 3.78831 9.5625 3.9375V6.75H12.375C12.5242 6.75 12.6673 6.80926 12.7727 6.91475C12.8782 7.02024 12.9375 7.16331 12.9375 7.3125Z" fill="#0D1B2A"/>
</svg>
