<svg width="18" height="18" viewBox="0 0 18 18" fill="none" xmlns="http://www.w3.org/2000/svg">
<path d="M14.0141 13.9192L13.5157 13.4208L13.9604 12.8739C14.9991 11.5964 15.6214 9.97083 15.6214 8.20132C15.6214 4.11058 12.2921 0.78125 8.20132 0.78125C4.11057 0.78125 0.78125 4.11057 0.78125 8.20132C0.78125 12.2921 4.11058 15.6214 8.20135 15.6214C9.97085 15.6214 11.5964 14.999 12.8739 13.9604L13.4207 13.5157L13.9191 14.0141L16.8002 16.8951L16.8951 16.8002L14.0141 13.9192ZM15.4871 8.20132C15.4871 12.2194 12.2194 15.4871 8.20132 15.4871C4.18328 15.4871 0.915567 12.2194 0.915567 8.20132C0.915567 4.18328 4.18324 0.915566 8.20132 0.915566C12.2194 0.915566 15.4871 4.18328 15.4871 8.20132Z" fill="#0D1B2A" stroke="#0D1B2A" stroke-width="1.5625"/>
</svg>
