<svg width="20" height="18" viewBox="0 0 20 18" fill="none" xmlns="http://www.w3.org/2000/svg">
<mask id="path-1-inside-1_413_57" fill="white">
<path d="M19.9999 13.4414C19.9999 12.181 19.6495 10.9639 18.9864 9.92181C18.5094 9.17224 17.8952 8.54978 17.1834 8.08721C18.0214 7.23251 18.5458 6.02448 18.5458 4.68628C18.5458 2.10229 16.5938 0 14.1946 0C12.7719 0 11.4392 0.75778 10.6297 2.00172C10.424 1.96945 10.2139 1.95205 9.99997 1.95205C9.78606 1.95205 9.57595 1.96951 9.37025 2.00172C8.56071 0.75778 7.22803 0 5.80542 0C3.40617 0 1.45419 2.10229 1.45419 4.68628C1.45419 6.02448 1.97851 7.23251 2.81656 8.08721C2.10474 8.54972 1.49054 9.17224 1.01363 9.92175C0.350513 10.9639 0 12.181 0 13.4414V16.048H4.19461V18H15.8054V16.048H20V13.4414H19.9999ZM14.1946 1.15662C16.0017 1.15662 17.4719 2.74001 17.4719 4.68634C17.4719 6.63266 16.0017 8.21605 14.1946 8.21605C14.1622 8.21605 14.1298 8.21553 14.0974 8.21449C14.0999 8.20709 14.1019 8.19951 14.1043 8.19211C14.1603 8.02129 14.2069 7.84584 14.2444 7.66663C14.247 7.6539 14.25 7.6413 14.2525 7.62852C14.2622 7.58017 14.2708 7.53137 14.2791 7.48244C14.283 7.45931 14.287 7.43624 14.2906 7.41305C14.2974 7.36939 14.3035 7.32556 14.3092 7.28155C14.3131 7.25096 14.3166 7.22037 14.32 7.18972C14.3243 7.15086 14.3284 7.11194 14.3318 7.07279C14.3352 7.03283 14.3378 6.99281 14.3403 6.95274C14.3422 6.92116 14.3446 6.88971 14.3459 6.85796C14.3489 6.78989 14.3506 6.72171 14.3508 6.65348C14.3508 6.64845 14.3512 6.64353 14.3512 6.63844C14.3512 6.63572 14.3509 6.63301 14.3509 6.63029C14.3508 6.56061 14.349 6.49133 14.3461 6.42228C14.3452 6.40221 14.3441 6.38221 14.343 6.3622C14.3398 6.3035 14.3357 6.24509 14.3306 6.18698C14.3294 6.17379 14.3284 6.16061 14.3272 6.14748C14.1649 4.45838 13.1741 3.01262 11.7448 2.34389C12.3607 1.59866 13.2516 1.15662 14.1946 1.15662ZM8.86602 3.32645C8.87649 3.32234 8.88706 3.31847 8.89753 3.31442C8.93013 3.30187 8.96299 3.28996 8.99601 3.27845C9.02103 3.26984 9.04621 3.26151 9.07156 3.25353C9.08997 3.24769 9.10844 3.24208 9.12697 3.23653C9.16004 3.22675 9.19328 3.21721 9.22684 3.20848C9.4749 3.1436 9.7336 3.10838 9.99987 3.10838C10.2663 3.10861 10.5252 3.14389 10.7733 3.20877C10.8066 3.21744 10.8396 3.22693 10.8726 3.23664C10.8913 3.24225 10.9101 3.24792 10.9288 3.25388C10.9538 3.2618 10.9787 3.27001 11.0035 3.27851C11.0369 3.29013 11.0701 3.30216 11.1031 3.31488C11.1133 3.31876 11.1234 3.32246 11.1335 3.32645C12.2296 3.76299 13.0513 4.81356 13.2373 6.0885C13.2388 6.09867 13.2402 6.10891 13.2416 6.11914C13.2475 6.16234 13.2525 6.20589 13.257 6.24955C13.2586 6.26562 13.2603 6.28164 13.2618 6.29778C13.2653 6.33762 13.2679 6.37775 13.2703 6.418C13.2713 6.43523 13.2726 6.45241 13.2734 6.4697C13.2756 6.52111 13.2768 6.57281 13.277 6.62479C13.277 6.6293 13.2773 6.6337 13.2773 6.63821C13.2773 6.64029 13.2772 6.64243 13.2772 6.64451C13.2771 6.69482 13.2757 6.74479 13.2736 6.79458C13.273 6.81025 13.2723 6.82592 13.2715 6.84153C13.269 6.88965 13.2656 6.93753 13.2613 6.98506C13.2597 7.00345 13.2574 7.02179 13.2555 7.04012C13.2522 7.07088 13.2486 7.10159 13.2446 7.13212C13.2415 7.15589 13.2383 7.17971 13.2348 7.20337C13.2294 7.23939 13.2234 7.27519 13.2169 7.31087C13.2112 7.34262 13.2049 7.37425 13.1983 7.40582C13.1944 7.42485 13.1903 7.44387 13.1861 7.46278C13.1756 7.50968 13.1641 7.55629 13.1519 7.60273C13.147 7.62117 13.1425 7.63974 13.1373 7.65801C13.1298 7.68461 13.1218 7.71098 13.1138 7.73735C13.1073 7.75846 13.1007 7.77945 13.0939 7.80038C13.0862 7.82415 13.0786 7.84798 13.0704 7.87157C13.0565 7.91164 13.0419 7.95137 13.0267 7.99075C13.0199 8.00833 13.0127 8.02574 13.0057 8.04326C12.9924 8.07605 12.9788 8.10867 12.9646 8.14093C12.963 8.14475 12.9613 8.14857 12.9596 8.15238C12.9545 8.16383 12.9495 8.17534 12.9443 8.18679C12.9284 8.22172 12.9118 8.25624 12.8949 8.29048C12.8883 8.30378 12.8819 8.31725 12.8751 8.33049C12.8747 8.33136 12.8743 8.33217 12.8738 8.33298C12.8552 8.36941 12.8359 8.40527 12.8162 8.44089C12.8083 8.455 12.8006 8.46917 12.7926 8.4831C12.7711 8.52063 12.749 8.55776 12.7263 8.59431C12.7122 8.61703 12.6974 8.6393 12.6828 8.66168C12.6704 8.68064 12.6581 8.69967 12.6454 8.71835C12.6289 8.74252 12.6121 8.7664 12.595 8.79017C12.5834 8.8063 12.5717 8.82232 12.5599 8.83828C12.5418 8.86257 12.5236 8.88674 12.5051 8.91051C12.4935 8.92526 12.4816 8.93971 12.4699 8.95423C12.4506 8.97811 12.4313 9.00205 12.4114 9.02536C12.3996 9.03918 12.3874 9.05248 12.3753 9.06613C12.343 9.10285 12.3099 9.13876 12.2762 9.17398C12.2562 9.19485 12.2363 9.21579 12.2158 9.23608C12.2016 9.25014 12.187 9.26378 12.1726 9.2776C12.1491 9.3001 12.1254 9.32236 12.1013 9.34411C12.089 9.35515 12.0767 9.36608 12.0643 9.37695C12.0351 9.40251 12.0056 9.42755 11.9756 9.45207C11.9674 9.45872 11.9594 9.46549 11.9511 9.47208C11.4056 9.90886 10.7304 10.1678 9.99992 10.1678C9.26942 10.1678 8.59406 9.9088 8.04853 9.47191C8.04047 9.46543 8.03258 9.45878 8.02458 9.45224C7.99446 9.42767 7.96477 9.40246 7.9355 9.37678C7.92321 9.36597 7.91091 9.35515 7.89878 9.34416C7.87456 9.3223 7.85083 9.29992 7.8272 9.27737C7.81287 9.26361 7.79837 9.25008 7.78425 9.23608C7.76368 9.21573 7.74371 9.19474 7.72363 9.17386C7.68975 9.13853 7.65662 9.1025 7.62419 9.06566C7.61232 9.05219 7.60019 9.03906 7.58853 9.02542C7.56861 9.00205 7.54934 8.97805 7.53001 8.95417C7.51825 8.93966 7.50644 8.92526 7.49489 8.91051C7.47626 8.88674 7.45811 8.86257 7.44007 8.83834C7.42826 8.82238 7.4165 8.80636 7.4049 8.79017C7.38788 8.76646 7.37108 8.74258 7.35459 8.7184C7.34187 8.69967 7.32946 8.68059 7.31706 8.66156C7.30245 8.63924 7.28774 8.61703 7.27367 8.59436C7.25085 8.55764 7.22868 8.5204 7.20715 8.48276C7.19925 8.46894 7.19163 8.455 7.1839 8.44106C7.16387 8.40492 7.14427 8.3686 7.12543 8.33165C7.1185 8.31806 7.11195 8.30424 7.10513 8.29059C7.08816 8.25624 7.07157 8.2216 7.05562 8.18662C7.04993 8.17418 7.0444 8.16164 7.03887 8.14915C7.03801 8.14724 7.03721 8.14533 7.0364 8.14342C7.02153 8.10965 7.0073 8.07553 6.99339 8.04112C6.98679 8.02476 6.98008 8.00845 6.97374 7.99203C6.95817 7.95178 6.9433 7.91118 6.92907 7.87024C6.92139 7.84815 6.9143 7.82583 6.90705 7.80356C6.89959 7.78072 6.8924 7.75771 6.88536 7.73463C6.87779 7.70965 6.87017 7.68467 6.86308 7.65957C6.8525 7.62204 6.84251 7.58428 6.83312 7.54629C6.82651 7.51963 6.82055 7.49274 6.81449 7.46591C6.80976 7.4448 6.8052 7.42369 6.80085 7.40247C6.79548 7.37644 6.79006 7.35048 6.78522 7.32434C6.77776 7.28363 6.77094 7.24269 6.76482 7.20152C6.76149 7.17931 6.75859 7.15705 6.75564 7.13484C6.75129 7.10193 6.74737 7.06886 6.74388 7.03566C6.74216 7.0193 6.74017 7.00293 6.73862 6.98657C6.73416 6.93782 6.73078 6.88872 6.7282 6.83945C6.72745 6.82528 6.72686 6.81112 6.72627 6.79695C6.72407 6.74427 6.72251 6.69141 6.72251 6.63821C6.72251 6.58119 6.72401 6.52458 6.72654 6.4682C6.72723 6.45287 6.72841 6.43766 6.72922 6.4224C6.73158 6.38007 6.73443 6.33785 6.73819 6.29587C6.73948 6.28124 6.74103 6.26666 6.74248 6.25209C6.7471 6.20664 6.75231 6.16142 6.75854 6.11649C6.75972 6.10775 6.7609 6.09896 6.76219 6.09023C6.94759 4.81454 7.76954 3.76328 8.86602 3.32645ZM2.52806 4.68634C2.52806 2.74007 3.99825 1.15662 5.80542 1.15662C6.74844 1.15662 7.63928 1.59872 8.2552 2.34378C6.82539 3.01273 5.83436 4.45919 5.67258 6.14898C5.67145 6.16043 5.67065 6.17194 5.66963 6.18345C5.66426 6.24365 5.66002 6.30408 5.6568 6.36486C5.65583 6.38336 5.65476 6.40181 5.65395 6.42037C5.65089 6.49271 5.6488 6.56529 5.6488 6.63838C5.6488 6.71217 5.65078 6.78579 5.654 6.85935C5.65529 6.88895 5.65755 6.91827 5.65932 6.94771C5.66195 6.99004 5.66463 7.03237 5.66829 7.07458C5.67151 7.11211 5.67548 7.14941 5.67956 7.18671C5.6831 7.21921 5.68686 7.25159 5.69105 7.28398C5.69653 7.32648 5.70243 7.36881 5.70893 7.41097C5.71285 7.43601 5.71715 7.46099 5.72139 7.48597C5.72944 7.53316 5.73766 7.58023 5.747 7.6269C5.75011 7.64228 5.75366 7.65755 5.75688 7.67287C5.79334 7.84653 5.8386 8.01655 5.89251 8.18234C5.89595 8.19304 5.89895 8.20385 5.90244 8.21449C5.87007 8.21553 5.83764 8.21605 5.80531 8.21605C3.99825 8.21599 2.52806 6.6326 2.52806 4.68634ZM5.09489 12.0595C5.08308 12.0796 5.0718 12.1 5.0602 12.1201C5.03567 12.1628 5.01134 12.2056 4.98782 12.2488C4.97467 12.2729 4.962 12.2972 4.94922 12.3215C4.92806 12.3616 4.90718 12.4018 4.88688 12.4423C4.8741 12.4678 4.86154 12.4934 4.84908 12.519C4.82954 12.5594 4.81047 12.5999 4.79179 12.6405C4.78003 12.6661 4.76833 12.6916 4.75694 12.7173C4.73793 12.7601 4.71962 12.8033 4.70153 12.8466C4.6917 12.8701 4.68161 12.8935 4.67211 12.9171C4.65117 12.9689 4.63119 13.0212 4.61159 13.0736C4.60585 13.0889 4.59973 13.104 4.59414 13.1194C4.56928 13.1874 4.5455 13.2559 4.52294 13.3248C4.51779 13.3406 4.51317 13.3566 4.50807 13.3724C4.4911 13.4254 4.47457 13.4787 4.45894 13.5322C4.4518 13.5568 4.4452 13.5815 4.43832 13.6061C4.42571 13.6514 4.4133 13.6968 4.40165 13.7425C4.39472 13.7697 4.38812 13.7969 4.38152 13.8242C4.37088 13.8681 4.36068 13.912 4.35102 13.9561C4.34484 13.9841 4.33883 14.012 4.33308 14.04C4.32385 14.0847 4.3152 14.1296 4.30688 14.1745C4.30189 14.2015 4.29673 14.2285 4.29206 14.2556C4.28363 14.3045 4.27606 14.3537 4.2687 14.4029C4.26527 14.426 4.26146 14.4491 4.25823 14.4722C4.24825 14.5445 4.23917 14.6169 4.23155 14.6897C4.23144 14.6906 4.23139 14.6915 4.23133 14.6923C4.22441 14.7586 4.21845 14.8249 4.21345 14.8914H1.07387V13.4414C1.07387 11.4603 2.13132 9.68182 3.78798 8.83649C4.3915 9.17814 5.07755 9.37262 5.80537 9.37262C6.01585 9.37262 6.22697 9.35585 6.43648 9.32265C6.46913 9.37279 6.50231 9.42241 6.53667 9.4711C6.54827 9.48746 6.5603 9.50342 6.57211 9.51962C6.60605 9.56634 6.64046 9.61255 6.67601 9.65782C6.69056 9.67639 6.70549 9.69454 6.72031 9.71288C6.7536 9.75405 6.78742 9.7947 6.822 9.83455C6.84015 9.85554 6.85862 9.87618 6.87709 9.89683C6.90872 9.93193 6.94077 9.96651 6.97337 10.0006C6.98561 10.0134 6.99715 10.0269 7.0095 10.0395C6.96284 10.0699 6.91661 10.101 6.87081 10.1328C6.86335 10.1379 6.85604 10.1433 6.84864 10.1486C6.80283 10.1806 6.75752 10.2133 6.71263 10.2467C6.69711 10.2583 6.68165 10.2699 6.66618 10.2816C6.62618 10.312 6.58661 10.3429 6.54736 10.3743C6.53496 10.3842 6.52239 10.3939 6.5101 10.404C6.46016 10.4446 6.41082 10.486 6.36212 10.5284C6.35148 10.5376 6.34107 10.5472 6.33044 10.5565C6.29167 10.5907 6.25328 10.6255 6.21537 10.6607C6.20066 10.6744 6.18605 10.6881 6.17145 10.702C6.13349 10.738 6.09601 10.7745 6.05891 10.8116C6.04924 10.8213 6.03936 10.8308 6.02975 10.8405C5.98422 10.8867 5.93939 10.9337 5.8952 10.9815C5.8837 10.9939 5.87248 11.0066 5.8611 11.0191C5.82727 11.0563 5.79382 11.0939 5.7608 11.132C5.7477 11.1471 5.7346 11.1623 5.7216 11.1776C5.68445 11.2213 5.64783 11.2656 5.6118 11.3106C5.60616 11.3176 5.60031 11.3244 5.59467 11.3315C5.5536 11.3832 5.51343 11.4358 5.47381 11.489C5.46275 11.5038 5.45195 11.5188 5.44105 11.5338C5.41125 11.5745 5.38188 11.6157 5.353 11.6573C5.34183 11.6734 5.33061 11.6893 5.3196 11.7055C5.2818 11.761 5.24448 11.817 5.20824 11.874C5.16931 11.9352 5.13162 11.9971 5.09489 12.0595ZM5.26848 16.8435V16.0481V15.3935C5.26848 15.3293 5.26961 15.2653 5.27181 15.2015C5.27251 15.1805 5.27407 15.1597 5.27503 15.1388C5.27697 15.0962 5.27879 15.0536 5.28169 15.0112C5.28346 14.9855 5.28615 14.96 5.28829 14.9343C5.29141 14.8969 5.2942 14.8595 5.29807 14.8224C5.30091 14.7952 5.30462 14.7682 5.30784 14.7411C5.31203 14.7058 5.31595 14.6704 5.32078 14.6352C5.3247 14.6072 5.32942 14.5795 5.33372 14.5516C5.33898 14.5177 5.34387 14.4837 5.34977 14.45C5.35477 14.4215 5.36057 14.3933 5.36599 14.3649C5.37222 14.3321 5.37818 14.2993 5.385 14.2668C5.39101 14.2381 5.39788 14.2097 5.40433 14.1811C5.41158 14.1493 5.4185 14.1174 5.42629 14.0857C5.43338 14.057 5.44121 14.0285 5.44873 14C5.45689 13.969 5.46484 13.9379 5.47354 13.907C5.48165 13.8784 5.49056 13.8499 5.4991 13.8214C5.50822 13.7912 5.51708 13.7608 5.5267 13.7308C5.53582 13.7024 5.54565 13.6743 5.55521 13.6461C5.5653 13.6164 5.57518 13.5866 5.58576 13.5571C5.59585 13.529 5.60659 13.5013 5.61706 13.4734C5.62807 13.4444 5.63892 13.4151 5.65041 13.3862C5.66152 13.3584 5.67323 13.3309 5.68477 13.3034C5.69664 13.275 5.7084 13.2465 5.72074 13.2184C5.73283 13.1909 5.7455 13.1638 5.75801 13.1365C5.77079 13.1088 5.7834 13.081 5.79661 13.0535C5.80966 13.0264 5.82325 12.9997 5.83672 12.9729C5.85036 12.9458 5.86384 12.9187 5.87791 12.8919C5.89187 12.8653 5.90636 12.8391 5.9207 12.8128C5.9352 12.7863 5.94959 12.7597 5.96457 12.7335C5.97944 12.7074 5.9948 12.6817 6.0101 12.6559C6.02546 12.6301 6.04071 12.6042 6.05649 12.5787C6.07228 12.5531 6.08849 12.5279 6.10471 12.5027C6.12087 12.4775 6.13698 12.4524 6.15352 12.4275C6.17016 12.4025 6.18729 12.3779 6.20442 12.3532C6.22139 12.3287 6.2383 12.3043 6.25564 12.2802C6.27315 12.2558 6.29108 12.2318 6.30901 12.2078C6.32679 12.1839 6.34461 12.1602 6.36276 12.1367C6.38107 12.1131 6.39976 12.0898 6.41844 12.0665C6.43707 12.0434 6.45576 12.0202 6.47482 11.9973C6.49388 11.9744 6.51337 11.9518 6.53281 11.9293C6.55225 11.9068 6.57168 11.8844 6.5915 11.8623C6.61136 11.8401 6.6316 11.8182 6.6519 11.7964C6.67214 11.7746 6.69249 11.7529 6.71311 11.7315C6.73368 11.7101 6.75456 11.6891 6.77556 11.6681C6.79661 11.6471 6.81776 11.6261 6.83918 11.6054C6.86055 11.5848 6.88214 11.5645 6.90389 11.5443C6.92568 11.524 6.94765 11.5038 6.96982 11.4839C6.99189 11.4641 7.01417 11.4447 7.03662 11.4253C7.05922 11.4057 7.08199 11.3864 7.10497 11.3672C7.12768 11.3484 7.15061 11.3298 7.17364 11.3112C7.19705 11.2925 7.22062 11.2739 7.24446 11.2556C7.26777 11.2376 7.29129 11.2199 7.31496 11.2023C7.33923 11.1843 7.36361 11.1666 7.3882 11.149C7.4121 11.132 7.43621 11.1152 7.46042 11.0986C7.4855 11.0814 7.51073 11.0645 7.53613 11.0478C7.56061 11.0318 7.58526 11.0159 7.61007 11.0002C7.63584 10.984 7.66183 10.968 7.68798 10.9522C7.71305 10.937 7.73829 10.9221 7.76368 10.9074C7.79026 10.892 7.81705 10.8769 7.84401 10.862C7.86957 10.8478 7.89523 10.8339 7.92111 10.8202C7.94146 10.8094 7.96203 10.799 7.98259 10.7885C8.58606 11.1302 9.27221 11.3246 9.99997 11.3246C10.7278 11.3246 11.4139 11.1302 12.0174 10.7885C12.0378 10.7989 12.0582 10.8093 12.0784 10.8199C12.1046 10.8338 12.1305 10.8479 12.1564 10.8622C12.183 10.877 12.2095 10.8919 12.2358 10.9071C12.2615 10.9219 12.287 10.9371 12.3123 10.9524C12.3382 10.968 12.3638 10.9838 12.3893 10.9999C12.4145 11.0157 12.4394 11.0319 12.4642 11.0482C12.4893 11.0647 12.5142 11.0813 12.5389 11.0983C12.5635 11.1151 12.5879 11.1321 12.6121 11.1494C12.6364 11.1667 12.6605 11.1843 12.6844 11.202C12.7083 11.2198 12.7321 11.2376 12.7557 11.2558C12.7793 11.2739 12.8026 11.2923 12.8258 11.311C12.8491 11.3296 12.8722 11.3484 12.8951 11.3675C12.9179 11.3864 12.9405 11.4056 12.9629 11.425C12.9855 11.4445 13.0079 11.4641 13.0301 11.484C13.0522 11.5038 13.074 11.5238 13.0957 11.544C13.1175 11.5643 13.1393 11.5847 13.1608 11.6055C13.182 11.626 13.203 11.6468 13.2239 11.6677C13.2451 11.6889 13.2662 11.7101 13.2869 11.7317C13.3074 11.7529 13.3275 11.7745 13.3476 11.796C13.368 11.818 13.3884 11.84 13.4084 11.8623C13.428 11.8843 13.4474 11.9065 13.4667 11.9289C13.4864 11.9516 13.506 11.9744 13.5252 11.9974C13.5441 12.0201 13.5626 12.0431 13.5811 12.0661C13.5999 12.0895 13.6188 12.113 13.6372 12.1368C13.6553 12.1601 13.6729 12.1838 13.6906 12.2074C13.7087 12.2316 13.7267 12.2557 13.7443 12.2802C13.7616 12.3042 13.7784 12.3286 13.7953 12.3529C13.8124 12.3777 13.8296 12.4025 13.8464 12.4276C13.8629 12.4523 13.8789 12.4774 13.895 12.5024C13.9112 12.5277 13.9276 12.553 13.9434 12.5787C13.9591 12.6041 13.9742 12.6298 13.9895 12.6555C14.0049 12.6814 14.0203 12.7073 14.0353 12.7336C14.0501 12.7596 14.0644 12.7859 14.0788 12.8122C14.0933 12.8387 14.1079 12.8651 14.1219 12.8919C14.1359 12.9186 14.1494 12.9456 14.163 12.9726C14.1765 12.9995 14.1901 13.0263 14.2032 13.0534C14.2164 13.0808 14.2289 13.1087 14.2417 13.1364C14.2542 13.1636 14.267 13.1908 14.279 13.2183C14.2914 13.2464 14.3031 13.2748 14.3149 13.3031C14.3265 13.3308 14.3383 13.3584 14.3494 13.3863C14.3608 13.4149 14.3715 13.4439 14.3825 13.4728C14.3931 13.5009 14.4039 13.5289 14.4141 13.5572C14.4246 13.5866 14.4344 13.6162 14.4445 13.6458C14.4541 13.6741 14.4639 13.7023 14.473 13.7308C14.4827 13.7609 14.4916 13.7914 14.5007 13.8217C14.5093 13.8501 14.5181 13.8784 14.5262 13.907C14.5349 13.9379 14.5428 13.969 14.5511 14.0001C14.5586 14.0286 14.5664 14.057 14.5735 14.0857C14.5813 14.1174 14.5882 14.1493 14.5955 14.1811C14.602 14.2097 14.6088 14.2381 14.6148 14.2668C14.6216 14.2993 14.6275 14.3321 14.6338 14.3647C14.6392 14.3931 14.645 14.4214 14.65 14.45C14.6559 14.4834 14.6607 14.5171 14.666 14.5508C14.6703 14.5789 14.6751 14.6069 14.6791 14.6353C14.6839 14.6701 14.6878 14.7053 14.6919 14.7403C14.6952 14.7677 14.699 14.7949 14.7018 14.8223C14.7057 14.8595 14.7085 14.8969 14.7116 14.9342C14.7137 14.9599 14.7164 14.9854 14.7182 15.0112C14.7212 15.0535 14.7229 15.0962 14.7249 15.1388C14.7258 15.1597 14.7274 15.1805 14.7281 15.2015C14.7303 15.2652 14.7314 15.3292 14.7314 15.3934V16.048V16.8435H5.26848ZM15.7868 14.8914C15.7762 14.7506 15.7611 14.6106 15.7419 14.4714C15.7388 14.4494 15.7352 14.4275 15.7319 14.4056C15.7244 14.3552 15.7166 14.305 15.708 14.2549C15.7034 14.2285 15.6984 14.2023 15.6935 14.1759C15.6851 14.1302 15.6763 14.0846 15.6669 14.0391C15.6612 14.0117 15.6553 13.9843 15.6493 13.957C15.6395 13.9124 15.6292 13.8679 15.6184 13.8235C15.6119 13.7966 15.6054 13.7698 15.5986 13.743C15.5868 13.6968 15.5742 13.6509 15.5615 13.6051C15.5547 13.5809 15.5483 13.5567 15.5412 13.5325C15.5254 13.4782 15.5086 13.4242 15.4914 13.3703C15.4866 13.3553 15.4822 13.3401 15.4772 13.3251C15.4546 13.2559 15.4308 13.1873 15.4058 13.119C15.4004 13.1043 15.3946 13.0899 15.3891 13.0752C15.3693 13.0222 15.349 12.9693 15.3278 12.9168C15.3184 12.8935 15.3085 12.8705 15.2988 12.8473C15.2805 12.8036 15.2621 12.76 15.2428 12.7168C15.2316 12.6914 15.22 12.6663 15.2085 12.6411C15.1896 12.6001 15.1704 12.5592 15.1507 12.5185C15.1383 12.4931 15.1259 12.4678 15.1132 12.4425C15.0928 12.4018 15.0719 12.3615 15.0506 12.3212C15.0378 12.297 15.0252 12.2729 15.0122 12.2489C14.9885 12.2054 14.9641 12.1625 14.9394 12.1196C14.9279 12.0996 14.9168 12.0794 14.9051 12.0595C14.8683 11.9971 14.8306 11.9352 14.7916 11.874C14.7553 11.817 14.718 11.761 14.6802 11.7055C14.6692 11.6894 14.6581 11.6735 14.647 11.6575C14.618 11.6157 14.5885 11.5744 14.5586 11.5335C14.5478 11.5187 14.5371 11.5038 14.5261 11.4892C14.4865 11.4359 14.4461 11.3831 14.405 11.3314C14.3996 11.3247 14.3941 11.3181 14.3887 11.3114C14.3524 11.2661 14.3154 11.2215 14.278 11.1774C14.2651 11.1623 14.2522 11.1473 14.2392 11.1323C14.206 11.0939 14.1724 11.0561 14.1383 11.0187C14.1271 11.0064 14.1161 10.9939 14.1048 10.9817C14.0605 10.9339 14.0155 10.8867 13.9698 10.8404C13.9604 10.8309 13.9508 10.8216 13.9413 10.8121C13.904 10.7748 13.8663 10.7381 13.8282 10.7019C13.8137 10.6881 13.7991 10.6745 13.7845 10.6609C13.7465 10.6255 13.7081 10.5908 13.6692 10.5565C13.6587 10.5472 13.6483 10.5377 13.6377 10.5284C13.589 10.4861 13.5397 10.4447 13.4898 10.4041C13.4773 10.394 13.4647 10.3841 13.4522 10.3741C13.4131 10.3429 13.3737 10.3122 13.3339 10.282C13.3182 10.2701 13.3026 10.2583 13.2869 10.2466C13.2425 10.2136 13.1976 10.1812 13.1523 10.1495C13.1444 10.144 13.1366 10.1382 13.1287 10.1327C13.0829 10.1011 13.0368 10.07 12.9902 10.0397C13.0023 10.0274 13.0135 10.0143 13.0254 10.0018C13.0587 9.96709 13.0914 9.93181 13.1236 9.89596C13.1416 9.87595 13.1595 9.85589 13.1771 9.83553C13.2123 9.79505 13.2465 9.75376 13.2803 9.71195C13.2947 9.6942 13.3092 9.67656 13.3233 9.65852C13.3593 9.6126 13.3943 9.5657 13.4287 9.51823C13.44 9.50273 13.4516 9.48746 13.4626 9.47179C13.4972 9.42293 13.5305 9.37308 13.5633 9.32277C13.7728 9.3559 13.9839 9.37267 14.1944 9.37267C14.9222 9.37267 15.6083 9.17826 16.2118 8.83655C17.8685 9.68188 18.9259 11.4604 18.9259 13.4415V14.8914H15.7868Z"/>
</mask>
<path d="M19.9999 13.4414C19.9999 12.181 19.6495 10.9639 18.9864 9.92181C18.5094 9.17224 17.8952 8.54978 17.1834 8.08721C18.0214 7.23251 18.5458 6.02448 18.5458 4.68628C18.5458 2.10229 16.5938 0 14.1946 0C12.7719 0 11.4392 0.75778 10.6297 2.00172C10.424 1.96945 10.2139 1.95205 9.99997 1.95205C9.78606 1.95205 9.57595 1.96951 9.37025 2.00172C8.56071 0.75778 7.22803 0 5.80542 0C3.40617 0 1.45419 2.10229 1.45419 4.68628C1.45419 6.02448 1.97851 7.23251 2.81656 8.08721C2.10474 8.54972 1.49054 9.17224 1.01363 9.92175C0.350513 10.9639 0 12.181 0 13.4414V16.048H4.19461V18H15.8054V16.048H20V13.4414H19.9999ZM14.1946 1.15662C16.0017 1.15662 17.4719 2.74001 17.4719 4.68634C17.4719 6.63266 16.0017 8.21605 14.1946 8.21605C14.1622 8.21605 14.1298 8.21553 14.0974 8.21449C14.0999 8.20709 14.1019 8.19951 14.1043 8.19211C14.1603 8.02129 14.2069 7.84584 14.2444 7.66663C14.247 7.6539 14.25 7.6413 14.2525 7.62852C14.2622 7.58017 14.2708 7.53137 14.2791 7.48244C14.283 7.45931 14.287 7.43624 14.2906 7.41305C14.2974 7.36939 14.3035 7.32556 14.3092 7.28155C14.3131 7.25096 14.3166 7.22037 14.32 7.18972C14.3243 7.15086 14.3284 7.11194 14.3318 7.07279C14.3352 7.03283 14.3378 6.99281 14.3403 6.95274C14.3422 6.92116 14.3446 6.88971 14.3459 6.85796C14.3489 6.78989 14.3506 6.72171 14.3508 6.65348C14.3508 6.64845 14.3512 6.64353 14.3512 6.63844C14.3512 6.63572 14.3509 6.63301 14.3509 6.63029C14.3508 6.56061 14.349 6.49133 14.3461 6.42228C14.3452 6.40221 14.3441 6.38221 14.343 6.3622C14.3398 6.3035 14.3357 6.24509 14.3306 6.18698C14.3294 6.17379 14.3284 6.16061 14.3272 6.14748C14.1649 4.45838 13.1741 3.01262 11.7448 2.34389C12.3607 1.59866 13.2516 1.15662 14.1946 1.15662ZM8.86602 3.32645C8.87649 3.32234 8.88706 3.31847 8.89753 3.31442C8.93013 3.30187 8.96299 3.28996 8.99601 3.27845C9.02103 3.26984 9.04621 3.26151 9.07156 3.25353C9.08997 3.24769 9.10844 3.24208 9.12697 3.23653C9.16004 3.22675 9.19328 3.21721 9.22684 3.20848C9.4749 3.1436 9.7336 3.10838 9.99987 3.10838C10.2663 3.10861 10.5252 3.14389 10.7733 3.20877C10.8066 3.21744 10.8396 3.22693 10.8726 3.23664C10.8913 3.24225 10.9101 3.24792 10.9288 3.25388C10.9538 3.2618 10.9787 3.27001 11.0035 3.27851C11.0369 3.29013 11.0701 3.30216 11.1031 3.31488C11.1133 3.31876 11.1234 3.32246 11.1335 3.32645C12.2296 3.76299 13.0513 4.81356 13.2373 6.0885C13.2388 6.09867 13.2402 6.10891 13.2416 6.11914C13.2475 6.16234 13.2525 6.20589 13.257 6.24955C13.2586 6.26562 13.2603 6.28164 13.2618 6.29778C13.2653 6.33762 13.2679 6.37775 13.2703 6.418C13.2713 6.43523 13.2726 6.45241 13.2734 6.4697C13.2756 6.52111 13.2768 6.57281 13.277 6.62479C13.277 6.6293 13.2773 6.6337 13.2773 6.63821C13.2773 6.64029 13.2772 6.64243 13.2772 6.64451C13.2771 6.69482 13.2757 6.74479 13.2736 6.79458C13.273 6.81025 13.2723 6.82592 13.2715 6.84153C13.269 6.88965 13.2656 6.93753 13.2613 6.98506C13.2597 7.00345 13.2574 7.02179 13.2555 7.04012C13.2522 7.07088 13.2486 7.10159 13.2446 7.13212C13.2415 7.15589 13.2383 7.17971 13.2348 7.20337C13.2294 7.23939 13.2234 7.27519 13.2169 7.31087C13.2112 7.34262 13.2049 7.37425 13.1983 7.40582C13.1944 7.42485 13.1903 7.44387 13.1861 7.46278C13.1756 7.50968 13.1641 7.55629 13.1519 7.60273C13.147 7.62117 13.1425 7.63974 13.1373 7.65801C13.1298 7.68461 13.1218 7.71098 13.1138 7.73735C13.1073 7.75846 13.1007 7.77945 13.0939 7.80038C13.0862 7.82415 13.0786 7.84798 13.0704 7.87157C13.0565 7.91164 13.0419 7.95137 13.0267 7.99075C13.0199 8.00833 13.0127 8.02574 13.0057 8.04326C12.9924 8.07605 12.9788 8.10867 12.9646 8.14093C12.963 8.14475 12.9613 8.14857 12.9596 8.15238C12.9545 8.16383 12.9495 8.17534 12.9443 8.18679C12.9284 8.22172 12.9118 8.25624 12.8949 8.29048C12.8883 8.30378 12.8819 8.31725 12.8751 8.33049C12.8747 8.33136 12.8743 8.33217 12.8738 8.33298C12.8552 8.36941 12.8359 8.40527 12.8162 8.44089C12.8083 8.455 12.8006 8.46917 12.7926 8.4831C12.7711 8.52063 12.749 8.55776 12.7263 8.59431C12.7122 8.61703 12.6974 8.6393 12.6828 8.66168C12.6704 8.68064 12.6581 8.69967 12.6454 8.71835C12.6289 8.74252 12.6121 8.7664 12.595 8.79017C12.5834 8.8063 12.5717 8.82232 12.5599 8.83828C12.5418 8.86257 12.5236 8.88674 12.5051 8.91051C12.4935 8.92526 12.4816 8.93971 12.4699 8.95423C12.4506 8.97811 12.4313 9.00205 12.4114 9.02536C12.3996 9.03918 12.3874 9.05248 12.3753 9.06613C12.343 9.10285 12.3099 9.13876 12.2762 9.17398C12.2562 9.19485 12.2363 9.21579 12.2158 9.23608C12.2016 9.25014 12.187 9.26378 12.1726 9.2776C12.1491 9.3001 12.1254 9.32236 12.1013 9.34411C12.089 9.35515 12.0767 9.36608 12.0643 9.37695C12.0351 9.40251 12.0056 9.42755 11.9756 9.45207C11.9674 9.45872 11.9594 9.46549 11.9511 9.47208C11.4056 9.90886 10.7304 10.1678 9.99992 10.1678C9.26942 10.1678 8.59406 9.9088 8.04853 9.47191C8.04047 9.46543 8.03258 9.45878 8.02458 9.45224C7.99446 9.42767 7.96477 9.40246 7.9355 9.37678C7.92321 9.36597 7.91091 9.35515 7.89878 9.34416C7.87456 9.3223 7.85083 9.29992 7.8272 9.27737C7.81287 9.26361 7.79837 9.25008 7.78425 9.23608C7.76368 9.21573 7.74371 9.19474 7.72363 9.17386C7.68975 9.13853 7.65662 9.1025 7.62419 9.06566C7.61232 9.05219 7.60019 9.03906 7.58853 9.02542C7.56861 9.00205 7.54934 8.97805 7.53001 8.95417C7.51825 8.93966 7.50644 8.92526 7.49489 8.91051C7.47626 8.88674 7.45811 8.86257 7.44007 8.83834C7.42826 8.82238 7.4165 8.80636 7.4049 8.79017C7.38788 8.76646 7.37108 8.74258 7.35459 8.7184C7.34187 8.69967 7.32946 8.68059 7.31706 8.66156C7.30245 8.63924 7.28774 8.61703 7.27367 8.59436C7.25085 8.55764 7.22868 8.5204 7.20715 8.48276C7.19925 8.46894 7.19163 8.455 7.1839 8.44106C7.16387 8.40492 7.14427 8.3686 7.12543 8.33165C7.1185 8.31806 7.11195 8.30424 7.10513 8.29059C7.08816 8.25624 7.07157 8.2216 7.05562 8.18662C7.04993 8.17418 7.0444 8.16164 7.03887 8.14915C7.03801 8.14724 7.03721 8.14533 7.0364 8.14342C7.02153 8.10965 7.0073 8.07553 6.99339 8.04112C6.98679 8.02476 6.98008 8.00845 6.97374 7.99203C6.95817 7.95178 6.9433 7.91118 6.92907 7.87024C6.92139 7.84815 6.9143 7.82583 6.90705 7.80356C6.89959 7.78072 6.8924 7.75771 6.88536 7.73463C6.87779 7.70965 6.87017 7.68467 6.86308 7.65957C6.8525 7.62204 6.84251 7.58428 6.83312 7.54629C6.82651 7.51963 6.82055 7.49274 6.81449 7.46591C6.80976 7.4448 6.8052 7.42369 6.80085 7.40247C6.79548 7.37644 6.79006 7.35048 6.78522 7.32434C6.77776 7.28363 6.77094 7.24269 6.76482 7.20152C6.76149 7.17931 6.75859 7.15705 6.75564 7.13484C6.75129 7.10193 6.74737 7.06886 6.74388 7.03566C6.74216 7.0193 6.74017 7.00293 6.73862 6.98657C6.73416 6.93782 6.73078 6.88872 6.7282 6.83945C6.72745 6.82528 6.72686 6.81112 6.72627 6.79695C6.72407 6.74427 6.72251 6.69141 6.72251 6.63821C6.72251 6.58119 6.72401 6.52458 6.72654 6.4682C6.72723 6.45287 6.72841 6.43766 6.72922 6.4224C6.73158 6.38007 6.73443 6.33785 6.73819 6.29587C6.73948 6.28124 6.74103 6.26666 6.74248 6.25209C6.7471 6.20664 6.75231 6.16142 6.75854 6.11649C6.75972 6.10775 6.7609 6.09896 6.76219 6.09023C6.94759 4.81454 7.76954 3.76328 8.86602 3.32645ZM2.52806 4.68634C2.52806 2.74007 3.99825 1.15662 5.80542 1.15662C6.74844 1.15662 7.63928 1.59872 8.2552 2.34378C6.82539 3.01273 5.83436 4.45919 5.67258 6.14898C5.67145 6.16043 5.67065 6.17194 5.66963 6.18345C5.66426 6.24365 5.66002 6.30408 5.6568 6.36486C5.65583 6.38336 5.65476 6.40181 5.65395 6.42037C5.65089 6.49271 5.6488 6.56529 5.6488 6.63838C5.6488 6.71217 5.65078 6.78579 5.654 6.85935C5.65529 6.88895 5.65755 6.91827 5.65932 6.94771C5.66195 6.99004 5.66463 7.03237 5.66829 7.07458C5.67151 7.11211 5.67548 7.14941 5.67956 7.18671C5.6831 7.21921 5.68686 7.25159 5.69105 7.28398C5.69653 7.32648 5.70243 7.36881 5.70893 7.41097C5.71285 7.43601 5.71715 7.46099 5.72139 7.48597C5.72944 7.53316 5.73766 7.58023 5.747 7.6269C5.75011 7.64228 5.75366 7.65755 5.75688 7.67287C5.79334 7.84653 5.8386 8.01655 5.89251 8.18234C5.89595 8.19304 5.89895 8.20385 5.90244 8.21449C5.87007 8.21553 5.83764 8.21605 5.80531 8.21605C3.99825 8.21599 2.52806 6.6326 2.52806 4.68634ZM5.09489 12.0595C5.08308 12.0796 5.0718 12.1 5.0602 12.1201C5.03567 12.1628 5.01134 12.2056 4.98782 12.2488C4.97467 12.2729 4.962 12.2972 4.94922 12.3215C4.92806 12.3616 4.90718 12.4018 4.88688 12.4423C4.8741 12.4678 4.86154 12.4934 4.84908 12.519C4.82954 12.5594 4.81047 12.5999 4.79179 12.6405C4.78003 12.6661 4.76833 12.6916 4.75694 12.7173C4.73793 12.7601 4.71962 12.8033 4.70153 12.8466C4.6917 12.8701 4.68161 12.8935 4.67211 12.9171C4.65117 12.9689 4.63119 13.0212 4.61159 13.0736C4.60585 13.0889 4.59973 13.104 4.59414 13.1194C4.56928 13.1874 4.5455 13.2559 4.52294 13.3248C4.51779 13.3406 4.51317 13.3566 4.50807 13.3724C4.4911 13.4254 4.47457 13.4787 4.45894 13.5322C4.4518 13.5568 4.4452 13.5815 4.43832 13.6061C4.42571 13.6514 4.4133 13.6968 4.40165 13.7425C4.39472 13.7697 4.38812 13.7969 4.38152 13.8242C4.37088 13.8681 4.36068 13.912 4.35102 13.9561C4.34484 13.9841 4.33883 14.012 4.33308 14.04C4.32385 14.0847 4.3152 14.1296 4.30688 14.1745C4.30189 14.2015 4.29673 14.2285 4.29206 14.2556C4.28363 14.3045 4.27606 14.3537 4.2687 14.4029C4.26527 14.426 4.26146 14.4491 4.25823 14.4722C4.24825 14.5445 4.23917 14.6169 4.23155 14.6897C4.23144 14.6906 4.23139 14.6915 4.23133 14.6923C4.22441 14.7586 4.21845 14.8249 4.21345 14.8914H1.07387V13.4414C1.07387 11.4603 2.13132 9.68182 3.78798 8.83649C4.3915 9.17814 5.07755 9.37262 5.80537 9.37262C6.01585 9.37262 6.22697 9.35585 6.43648 9.32265C6.46913 9.37279 6.50231 9.42241 6.53667 9.4711C6.54827 9.48746 6.5603 9.50342 6.57211 9.51962C6.60605 9.56634 6.64046 9.61255 6.67601 9.65782C6.69056 9.67639 6.70549 9.69454 6.72031 9.71288C6.7536 9.75405 6.78742 9.7947 6.822 9.83455C6.84015 9.85554 6.85862 9.87618 6.87709 9.89683C6.90872 9.93193 6.94077 9.96651 6.97337 10.0006C6.98561 10.0134 6.99715 10.0269 7.0095 10.0395C6.96284 10.0699 6.91661 10.101 6.87081 10.1328C6.86335 10.1379 6.85604 10.1433 6.84864 10.1486C6.80283 10.1806 6.75752 10.2133 6.71263 10.2467C6.69711 10.2583 6.68165 10.2699 6.66618 10.2816C6.62618 10.312 6.58661 10.3429 6.54736 10.3743C6.53496 10.3842 6.52239 10.3939 6.5101 10.404C6.46016 10.4446 6.41082 10.486 6.36212 10.5284C6.35148 10.5376 6.34107 10.5472 6.33044 10.5565C6.29167 10.5907 6.25328 10.6255 6.21537 10.6607C6.20066 10.6744 6.18605 10.6881 6.17145 10.702C6.13349 10.738 6.09601 10.7745 6.05891 10.8116C6.04924 10.8213 6.03936 10.8308 6.02975 10.8405C5.98422 10.8867 5.93939 10.9337 5.8952 10.9815C5.8837 10.9939 5.87248 11.0066 5.8611 11.0191C5.82727 11.0563 5.79382 11.0939 5.7608 11.132C5.7477 11.1471 5.7346 11.1623 5.7216 11.1776C5.68445 11.2213 5.64783 11.2656 5.6118 11.3106C5.60616 11.3176 5.60031 11.3244 5.59467 11.3315C5.5536 11.3832 5.51343 11.4358 5.47381 11.489C5.46275 11.5038 5.45195 11.5188 5.44105 11.5338C5.41125 11.5745 5.38188 11.6157 5.353 11.6573C5.34183 11.6734 5.33061 11.6893 5.3196 11.7055C5.2818 11.761 5.24448 11.817 5.20824 11.874C5.16931 11.9352 5.13162 11.9971 5.09489 12.0595ZM5.26848 16.8435V16.0481V15.3935C5.26848 15.3293 5.26961 15.2653 5.27181 15.2015C5.27251 15.1805 5.27407 15.1597 5.27503 15.1388C5.27697 15.0962 5.27879 15.0536 5.28169 15.0112C5.28346 14.9855 5.28615 14.96 5.28829 14.9343C5.29141 14.8969 5.2942 14.8595 5.29807 14.8224C5.30091 14.7952 5.30462 14.7682 5.30784 14.7411C5.31203 14.7058 5.31595 14.6704 5.32078 14.6352C5.3247 14.6072 5.32942 14.5795 5.33372 14.5516C5.33898 14.5177 5.34387 14.4837 5.34977 14.45C5.35477 14.4215 5.36057 14.3933 5.36599 14.3649C5.37222 14.3321 5.37818 14.2993 5.385 14.2668C5.39101 14.2381 5.39788 14.2097 5.40433 14.1811C5.41158 14.1493 5.4185 14.1174 5.42629 14.0857C5.43338 14.057 5.44121 14.0285 5.44873 14C5.45689 13.969 5.46484 13.9379 5.47354 13.907C5.48165 13.8784 5.49056 13.8499 5.4991 13.8214C5.50822 13.7912 5.51708 13.7608 5.5267 13.7308C5.53582 13.7024 5.54565 13.6743 5.55521 13.6461C5.5653 13.6164 5.57518 13.5866 5.58576 13.5571C5.59585 13.529 5.60659 13.5013 5.61706 13.4734C5.62807 13.4444 5.63892 13.4151 5.65041 13.3862C5.66152 13.3584 5.67323 13.3309 5.68477 13.3034C5.69664 13.275 5.7084 13.2465 5.72074 13.2184C5.73283 13.1909 5.7455 13.1638 5.75801 13.1365C5.77079 13.1088 5.7834 13.081 5.79661 13.0535C5.80966 13.0264 5.82325 12.9997 5.83672 12.9729C5.85036 12.9458 5.86384 12.9187 5.87791 12.8919C5.89187 12.8653 5.90636 12.8391 5.9207 12.8128C5.9352 12.7863 5.94959 12.7597 5.96457 12.7335C5.97944 12.7074 5.9948 12.6817 6.0101 12.6559C6.02546 12.6301 6.04071 12.6042 6.05649 12.5787C6.07228 12.5531 6.08849 12.5279 6.10471 12.5027C6.12087 12.4775 6.13698 12.4524 6.15352 12.4275C6.17016 12.4025 6.18729 12.3779 6.20442 12.3532C6.22139 12.3287 6.2383 12.3043 6.25564 12.2802C6.27315 12.2558 6.29108 12.2318 6.30901 12.2078C6.32679 12.1839 6.34461 12.1602 6.36276 12.1367C6.38107 12.1131 6.39976 12.0898 6.41844 12.0665C6.43707 12.0434 6.45576 12.0202 6.47482 11.9973C6.49388 11.9744 6.51337 11.9518 6.53281 11.9293C6.55225 11.9068 6.57168 11.8844 6.5915 11.8623C6.61136 11.8401 6.6316 11.8182 6.6519 11.7964C6.67214 11.7746 6.69249 11.7529 6.71311 11.7315C6.73368 11.7101 6.75456 11.6891 6.77556 11.6681C6.79661 11.6471 6.81776 11.6261 6.83918 11.6054C6.86055 11.5848 6.88214 11.5645 6.90389 11.5443C6.92568 11.524 6.94765 11.5038 6.96982 11.4839C6.99189 11.4641 7.01417 11.4447 7.03662 11.4253C7.05922 11.4057 7.08199 11.3864 7.10497 11.3672C7.12768 11.3484 7.15061 11.3298 7.17364 11.3112C7.19705 11.2925 7.22062 11.2739 7.24446 11.2556C7.26777 11.2376 7.29129 11.2199 7.31496 11.2023C7.33923 11.1843 7.36361 11.1666 7.3882 11.149C7.4121 11.132 7.43621 11.1152 7.46042 11.0986C7.4855 11.0814 7.51073 11.0645 7.53613 11.0478C7.56061 11.0318 7.58526 11.0159 7.61007 11.0002C7.63584 10.984 7.66183 10.968 7.68798 10.9522C7.71305 10.937 7.73829 10.9221 7.76368 10.9074C7.79026 10.892 7.81705 10.8769 7.84401 10.862C7.86957 10.8478 7.89523 10.8339 7.92111 10.8202C7.94146 10.8094 7.96203 10.799 7.98259 10.7885C8.58606 11.1302 9.27221 11.3246 9.99997 11.3246C10.7278 11.3246 11.4139 11.1302 12.0174 10.7885C12.0378 10.7989 12.0582 10.8093 12.0784 10.8199C12.1046 10.8338 12.1305 10.8479 12.1564 10.8622C12.183 10.877 12.2095 10.8919 12.2358 10.9071C12.2615 10.9219 12.287 10.9371 12.3123 10.9524C12.3382 10.968 12.3638 10.9838 12.3893 10.9999C12.4145 11.0157 12.4394 11.0319 12.4642 11.0482C12.4893 11.0647 12.5142 11.0813 12.5389 11.0983C12.5635 11.1151 12.5879 11.1321 12.6121 11.1494C12.6364 11.1667 12.6605 11.1843 12.6844 11.202C12.7083 11.2198 12.7321 11.2376 12.7557 11.2558C12.7793 11.2739 12.8026 11.2923 12.8258 11.311C12.8491 11.3296 12.8722 11.3484 12.8951 11.3675C12.9179 11.3864 12.9405 11.4056 12.9629 11.425C12.9855 11.4445 13.0079 11.4641 13.0301 11.484C13.0522 11.5038 13.074 11.5238 13.0957 11.544C13.1175 11.5643 13.1393 11.5847 13.1608 11.6055C13.182 11.626 13.203 11.6468 13.2239 11.6677C13.2451 11.6889 13.2662 11.7101 13.2869 11.7317C13.3074 11.7529 13.3275 11.7745 13.3476 11.796C13.368 11.818 13.3884 11.84 13.4084 11.8623C13.428 11.8843 13.4474 11.9065 13.4667 11.9289C13.4864 11.9516 13.506 11.9744 13.5252 11.9974C13.5441 12.0201 13.5626 12.0431 13.5811 12.0661C13.5999 12.0895 13.6188 12.113 13.6372 12.1368C13.6553 12.1601 13.6729 12.1838 13.6906 12.2074C13.7087 12.2316 13.7267 12.2557 13.7443 12.2802C13.7616 12.3042 13.7784 12.3286 13.7953 12.3529C13.8124 12.3777 13.8296 12.4025 13.8464 12.4276C13.8629 12.4523 13.8789 12.4774 13.895 12.5024C13.9112 12.5277 13.9276 12.553 13.9434 12.5787C13.9591 12.6041 13.9742 12.6298 13.9895 12.6555C14.0049 12.6814 14.0203 12.7073 14.0353 12.7336C14.0501 12.7596 14.0644 12.7859 14.0788 12.8122C14.0933 12.8387 14.1079 12.8651 14.1219 12.8919C14.1359 12.9186 14.1494 12.9456 14.163 12.9726C14.1765 12.9995 14.1901 13.0263 14.2032 13.0534C14.2164 13.0808 14.2289 13.1087 14.2417 13.1364C14.2542 13.1636 14.267 13.1908 14.279 13.2183C14.2914 13.2464 14.3031 13.2748 14.3149 13.3031C14.3265 13.3308 14.3383 13.3584 14.3494 13.3863C14.3608 13.4149 14.3715 13.4439 14.3825 13.4728C14.3931 13.5009 14.4039 13.5289 14.4141 13.5572C14.4246 13.5866 14.4344 13.6162 14.4445 13.6458C14.4541 13.6741 14.4639 13.7023 14.473 13.7308C14.4827 13.7609 14.4916 13.7914 14.5007 13.8217C14.5093 13.8501 14.5181 13.8784 14.5262 13.907C14.5349 13.9379 14.5428 13.969 14.5511 14.0001C14.5586 14.0286 14.5664 14.057 14.5735 14.0857C14.5813 14.1174 14.5882 14.1493 14.5955 14.1811C14.602 14.2097 14.6088 14.2381 14.6148 14.2668C14.6216 14.2993 14.6275 14.3321 14.6338 14.3647C14.6392 14.3931 14.645 14.4214 14.65 14.45C14.6559 14.4834 14.6607 14.5171 14.666 14.5508C14.6703 14.5789 14.6751 14.6069 14.6791 14.6353C14.6839 14.6701 14.6878 14.7053 14.6919 14.7403C14.6952 14.7677 14.699 14.7949 14.7018 14.8223C14.7057 14.8595 14.7085 14.8969 14.7116 14.9342C14.7137 14.9599 14.7164 14.9854 14.7182 15.0112C14.7212 15.0535 14.7229 15.0962 14.7249 15.1388C14.7258 15.1597 14.7274 15.1805 14.7281 15.2015C14.7303 15.2652 14.7314 15.3292 14.7314 15.3934V16.048V16.8435H5.26848ZM15.7868 14.8914C15.7762 14.7506 15.7611 14.6106 15.7419 14.4714C15.7388 14.4494 15.7352 14.4275 15.7319 14.4056C15.7244 14.3552 15.7166 14.305 15.708 14.2549C15.7034 14.2285 15.6984 14.2023 15.6935 14.1759C15.6851 14.1302 15.6763 14.0846 15.6669 14.0391C15.6612 14.0117 15.6553 13.9843 15.6493 13.957C15.6395 13.9124 15.6292 13.8679 15.6184 13.8235C15.6119 13.7966 15.6054 13.7698 15.5986 13.743C15.5868 13.6968 15.5742 13.6509 15.5615 13.6051C15.5547 13.5809 15.5483 13.5567 15.5412 13.5325C15.5254 13.4782 15.5086 13.4242 15.4914 13.3703C15.4866 13.3553 15.4822 13.3401 15.4772 13.3251C15.4546 13.2559 15.4308 13.1873 15.4058 13.119C15.4004 13.1043 15.3946 13.0899 15.3891 13.0752C15.3693 13.0222 15.349 12.9693 15.3278 12.9168C15.3184 12.8935 15.3085 12.8705 15.2988 12.8473C15.2805 12.8036 15.2621 12.76 15.2428 12.7168C15.2316 12.6914 15.22 12.6663 15.2085 12.6411C15.1896 12.6001 15.1704 12.5592 15.1507 12.5185C15.1383 12.4931 15.1259 12.4678 15.1132 12.4425C15.0928 12.4018 15.0719 12.3615 15.0506 12.3212C15.0378 12.297 15.0252 12.2729 15.0122 12.2489C14.9885 12.2054 14.9641 12.1625 14.9394 12.1196C14.9279 12.0996 14.9168 12.0794 14.9051 12.0595C14.8683 11.9971 14.8306 11.9352 14.7916 11.874C14.7553 11.817 14.718 11.761 14.6802 11.7055C14.6692 11.6894 14.6581 11.6735 14.647 11.6575C14.618 11.6157 14.5885 11.5744 14.5586 11.5335C14.5478 11.5187 14.5371 11.5038 14.5261 11.4892C14.4865 11.4359 14.4461 11.3831 14.405 11.3314C14.3996 11.3247 14.3941 11.3181 14.3887 11.3114C14.3524 11.2661 14.3154 11.2215 14.278 11.1774C14.2651 11.1623 14.2522 11.1473 14.2392 11.1323C14.206 11.0939 14.1724 11.0561 14.1383 11.0187C14.1271 11.0064 14.1161 10.9939 14.1048 10.9817C14.0605 10.9339 14.0155 10.8867 13.9698 10.8404C13.9604 10.8309 13.9508 10.8216 13.9413 10.8121C13.904 10.7748 13.8663 10.7381 13.8282 10.7019C13.8137 10.6881 13.7991 10.6745 13.7845 10.6609C13.7465 10.6255 13.7081 10.5908 13.6692 10.5565C13.6587 10.5472 13.6483 10.5377 13.6377 10.5284C13.589 10.4861 13.5397 10.4447 13.4898 10.4041C13.4773 10.394 13.4647 10.3841 13.4522 10.3741C13.4131 10.3429 13.3737 10.3122 13.3339 10.282C13.3182 10.2701 13.3026 10.2583 13.2869 10.2466C13.2425 10.2136 13.1976 10.1812 13.1523 10.1495C13.1444 10.144 13.1366 10.1382 13.1287 10.1327C13.0829 10.1011 13.0368 10.07 12.9902 10.0397C13.0023 10.0274 13.0135 10.0143 13.0254 10.0018C13.0587 9.96709 13.0914 9.93181 13.1236 9.89596C13.1416 9.87595 13.1595 9.85589 13.1771 9.83553C13.2123 9.79505 13.2465 9.75376 13.2803 9.71195C13.2947 9.6942 13.3092 9.67656 13.3233 9.65852C13.3593 9.6126 13.3943 9.5657 13.4287 9.51823C13.44 9.50273 13.4516 9.48746 13.4626 9.47179C13.4972 9.42293 13.5305 9.37308 13.5633 9.32277C13.7728 9.3559 13.9839 9.37267 14.1944 9.37267C14.9222 9.37267 15.6083 9.17826 16.2118 8.83655C17.8685 9.68188 18.9259 11.4604 18.9259 13.4415V14.8914H15.7868Z" fill="#0D1B2A" stroke="#0D1B2A" stroke-width="4.2955" mask="url(#path-1-inside-1_413_57)"/>
</svg>
