<svg width="16" height="16" viewBox="0 0 16 16" fill="none" xmlns="http://www.w3.org/2000/svg">
<path d="M8.70994 0C4.69019 0 1.41984 3.27031 1.41984 7.29006C1.41984 9.02887 2.03209 10.6272 3.05197 11.8816L0 14.9335L1.0665 16L4.11847 12.948C5.37275 13.9679 6.97109 14.5802 8.70991 14.5802C12.7297 14.5802 16 11.3098 16 7.29006C16 3.27031 12.7297 0 8.70994 0ZM8.70994 13.0718C5.52187 13.0718 2.92816 10.4781 2.92816 7.29006C2.92816 4.102 5.52184 1.50828 8.70994 1.50828C11.898 1.50828 14.4917 4.102 14.4917 7.29006C14.4917 10.4781 11.898 13.0718 8.70994 13.0718Z" fill="#0D1B2A"/>
</svg>
